<svg xmlns="http://www.w3.org/2000/svg" viewBox="3.028 231.004 227.682 330.998"><g fill="none" stroke="#A3D62E"><path d="M100.925 461.355l1.011.368h1.746l.13.458.078-.014-.145.842v1.103l-.276 1.563-.735 1.286-.734 1.011.551.735.572-.03.073.258.317.166.434-.005.563-.055.805-.034.146.009.673-.493.919-.734 1.102-.093.551.552.092.826-.264.738.145.061v.43l-.263.612-.2.299-.366.272-.445.539.426 2.15-.563 1.075.085 1.744.533.958 1.793.839.1.015.397.65 1.47.827h1.086l.129.149.713-.333h1.287l.431.131-.155 3.176-.183 2.113-.46 1.103.275 1.929.735 2.021.706.055.023.098 1.198-.126.41-.338.213-.294.666.237.551.735 1.011 1.93 1.011 2.021 1.167 1.008.045.107.066.541v.863l-.059.446-.157.607-.418.808-.136.055-.038-.12-1.613.248-.796.398-1.653.919-1.379 1.746-.551 1.653-.408 1.048-.063-.066-.914-1.551-1.294-1.896-.229-.28-.293-.333-.619-.57-1.756-1.246-1.887-2.854-.325-.376-.463-.361-.412-.234-.677-.327-1.839-1.072-2.194-1.297-1.652-1.355-.054-.674-.09-.703-.76-1.862-1.49-1.499-.283-.22-.563-1.143-.389-1.492-1.111-1.014-.461-.291-1.329-.564.109-4.022-.752-.479-.794-.265.277-.909.746-.276.472.239.511.746.615-1.568.156-.545.483-1.694.131-1.014.227-2.219-.271-.71-.855-1.546-.144-.147-.13-.185.045-.835.643-.558.735-1.652 1.194-.735 1.286-.919.919-.827 1.106-.462zm13.81-227.5l2.029 1.355 1.069.829.394.494 1.366.586.335-.126.501-.342.363-.094.343.133.408.482.273.443.218.501.074.383.02.383.125.489 1.331.783.447-.4.887.596 2.863 2.19.311.431.102.166.215.968.336 1.279.399 1.313.454.489.746.765-.287.79-.328.547.483.983.256.458.442.383 2.416.661 3.682 2.369.475.985 1.558.429.688-.184 1.043.091 1.718 1.585.144 1.071.083.547.399.446.756 1.028.523 1.009-.523.459-.175.31-.361 1.638.297.325 1.302.868 2.097.992 1.02-.488.735-.683 1.128.745.743 1.299.566 3.872-.344.955-.412.553-.536.249.289 1.44.186.317.541.426 1.243.684.493-.155.71-.028.563.935.361.921 1.179-.286 2.307-.873 1.636-.572 2.445.597 2.16.727.498.146 1.262.131 2.765-1.59 1.542-.669.892.166.73-.02.323-1.004 1.105-1.561 1.519-1.251.505-.196.175.325-.017.516.173.504 1.715.204.992-.037 1.895.814.887 1.147 3.047.238 1.526-.849 2.189-.586 2.062-.924 2.659 1.744h1.629l1.577 1.38 1.773.788 1.053.936.141-.086.353-.1.707.155 1.345 1.206.175.683 3.124-.623v.986l-.643 2.188-6.051 9.414-.614.957-2.082 3.217-1.082 1.669-.785 1.198-.911 1.432 2.044.869 1.399.52.477.001.375-.162.975-.592.305-.238.779-.257.36.039.327.16 1.555 1.259.923 1.157.337.654.179.542.144.454.144.333.23.376 1.443 1.192.346.233.571.386.56.585-.004.48.117.448-.18.362-.334.513-.656.445-3.174-.092-1.019-.722-.8-.724-.129-.345.183-.547-.024-.435-.358-.602-1.917-.135-.63.397-.609.437-1.478.277-.729-.612-2.4-.225-.84.4-.385.288-.644 1.12-.063.508-1.47 1.786-.648-.004-1.042.928h-1.972l-1.773.986-2.562.393-2.562.986-2.562-.198h-2.562l-1.576 1.38-1.774 1.576-1.97 1.38-2.563.985-2.759 1.774-2.759 2.956-2.562.985-1.971 3.153-.591 2.956-.591 3.744-2.365 1.971-2.168 3.547 1.773 4.336.789 2.759-2.562 2.563-2.759 1.378-4.336 1.971-1.773.986-.788 4.139-.86.245.017.154.344.257.975 1.508.248 1.515-.568.435-3.387.443.011 1.475-.56 1.484-.434.025-.167-.195-.324-.247-.052-.027-.035-.559-1.195-.919-1.194-1.011-1.747-.184-1.286-.092-.643-.734-.919-.092-.643.183-.368.644-.025.117-.048-.04-.048-.032-.706 1.058-.643.643-.339.593.149.793.122.73.268 3.483-.063 1.55-.087.452-.313.462-.55.387-.31.173-.438 1.023-1.011.552-2.297.183-1.838-.183-.177-.208-.215.065-.527-.316-2.022-.184-.917 1.102-.828.735-.448.498-.588-.066-1.136-.195-1.098.827-.406.774v1.562l-.091 1.103v1.067l-.608.472-.943.236-.052-.045-.415-.391-.404-.363-.561-.34h-.766l-2.316 2.015-1.072 1.141-.322.411-.311.256-.645.281-.408-1.076-.148-.854.056-.194.146-.508.078-.754.161-1.092.181-.412.058-.078-.715-1.125.309-2.313.771-1.388.986-.917-.199-.369-.412-.874h-1.212l-.3-1.051-1.088-1.423-.502-1.674-.419-2.847-1.423-1.423-.503-1.507v-1.339l.065-1.103 1.152-.384.048-.293.1-.393 1.703-1.216v-1.542l-.463-3.702.851-.85.327-.103.722-.042.512.117.516.147.483.195.468.341.463.351.186.233 1.95-.08 1.543-.309.66-.265.02-.032.161-.493.292-1.371-.049-.692.02-.596.078-1.042.107-1.248.132-.863.166-.838.034-.463-.061-.531-.17-.385.769-.897.154-1.543-.926-1.234-1.542-.771-2.159.462-1.15.876-1.586-.333-.511-.068-1.298.01-.786.062-.993.688-1.696 1.08-1.234-.618-1.234-1.542-1.697-1.542-1.586-.159-.343.276-.622.43-.619.281-.976.147-.868-.358-.875-.611-.345-.523-.396-.789-.14-.646-.365-1.042-.268-.487-.283-.507-1.785-1.227-.883-.279-.488.048-.683.027-.853-.025-1.536-.112-.493-.122-.512-.146-.463-.238-.727-.803-.336-.389-.371-.582-.531-.426-.858-.401-1.097-.348-1.029-.331-.551-.335-1-.742-.17-.328-.176-.229-1.058-2.282-.171-.511-.18-.98-.119-.061-1.697-1.389v-1.233l1.132-1.274-.141-.817-.035-.534.098-1.016.244-.851.308-.753.317-.485.316-.414.365-.389.329-.265.429-.678 1.124-2.367.122-.509.147-.996-.098-.584-.114-.389.027-.918.259-3.059.17-.352-.156-2.571-.087-.394-.147-.326-.195-.291-.668-.859-.239-.475-.107-.374-.039-.436.049-.694.1-.74-.748-3.36-.142-.449-.59-1.186-.685-1.111-.174-.536-.043-.551-.074-1.761-.642-2.806.276-.084 6.227-2.129 3.784-1.295 3.174-1.09 2.438-.839 4.279-1.476 4.506-3.348 5.789-4.349 1.696-2.001 3.443-4.089 1.082-1.289 1.623-1.948.687-.709.425-.275.182-.455 1.229-4.743.385-1.54.307-1.187.215-.829.521-2.01.443.489.305.295.513.208 1.994-.18-.817-2.697-.517-1.467.164-1.297.11-.103.18-.074.315-.287.081-1.197-.318-.661-1.357-1.018-.422.035-.449-.343-.42-.478-.37-.617-.249-.66-.185-.895-.098-.373-.288-.719-1.58-.911-.94-.14.152-1.142 1.699.18.688.469.963.358 1.321-.227.78-.289.341-.261.469.048.584-.462.162-.482.205-.549 1.197.153zm79.079 191.768l.01.603.873-.676.97-.63.476.316.495.492.249.363.089.113 1.869-.156 2.232-.335 2.232-.334 1.37-.114.229-.145.536-.326.342-.153.421-.107 2.559.191.742.655.865-.053.395-.095 1.404-.055.327.006-.016.008 1.191 1.981 1.194 1.975 3.223 5.315.599.989.601.988 1.95 3.215.526.866.678 1.114.239.371.526.865.561.956.79 1.58.785 1.606 1.511 3.093.229.496.663 1.359.371.745.063.094-1.223 1.494-.434 1.063-.83 1.59-1.121.436.161 1.418-.335 1.452-1.474 1.067-1.349.859-1.746.642-1.47.735-1.378.368-1.838.735-1.01.458-1.011 1.103-2.021.46-1.967.168-.376-.185-3.538-.626-2.02-1.102-2.297-1.011-2.573-.276-1.11.206.009-.113-1.427-.286-.037.05-1.201.052-1.746-.551-2.113-.184-1.378-.552-.734.276-.238.772-.172-.029-.693.817-.736.645-1.102.735-.827-.185-.275-1.285-.551-1.653-.048-.915-.193-.101-.218-.73-1.011-.184-1.654-.552-1.47-1.011-.918-1.561-1.102-1.286-.827.092-2.022.552-1.47.092-1.102.367-.04-.069-.695.069-1.011-.734-.092-1.103-.184-1.654-.643-.643-.735-1.01-.46-.735 1.286-1.011.574-.526-.099-.076-.114-.029.465-.93-1.378-.643-.551-1.286-1.01-1.379-1.654-1.194-1.47-.734-.367-1.931-.568-.663.158-.716-.325-.549-1.194-1.379.551-.643 1.194-1.286.827-1.378.368-2.114v-1.549l.188.028.534-.457.753-1.088.418-1.506.251-1.005-.67-.586.167-.837.887-.11-.006-.008 1.294.202 1.151-.149.085.073.672.109h.956l1.219-.097.526-.086.087-.037 1.915.103 4.771-.167.753-.753 1.088-1.003.334-1.006.122-1.577.101-.022.029-.828.586-1.757.586-.754 1.172-1.173 1.925-.752 2.093-2.176 1.342-1.284v-.05l1.002-.424 2.736-4.343-.012 1.832.004 2.082-.004 2.699-.015 4.788-.01 3.072-.02 2.333v1.103h.004z"/><path d="M80.473 332.396l.854.023.683-.026.487-.048.883.28 1.784 1.227.283.506.269.487.365 1.042.139.645.396.79.346.522.875.612.867.357.976-.147.618-.28.622-.431.343-.275 1.586.159 1.697 1.542 1.233 1.542 1.234.618 1.697-1.081.993-.688.786-.063 1.297-.008.512.068 1.585.334 1.15-.876 2.159-.463 1.542.772.926 1.233-.154 1.543-.769.897.17.386.061.531-.034.463-.166.838-.132.864-.107 1.247-.077 1.044-.02.595.048.692-.291 1.371-.162.493-.021.033-.66.264-1.542.309-1.951.082-.186-.233-.463-.351-.469-.342-.482-.195-.517-.147-.512-.117-.721.042-.327.102-.85.85.462 3.702v1.542l-1.702 1.216-.099.393-.049.293-1.152.384-.063 1.104V362l.501 1.506 1.422 1.423.419 2.846.502 1.673 1.088 1.423.3 1.052h1.212l.412.873.2.37-.986.917-.771 1.388-.308 2.314.111.175-1.654.596-1.542 1.542.462 3.856.329 1.315-.302.487-.311.231-.887-.107-.457-.613-1.134-2.857-.673-1.155-.56-.2-.8-.648-.031.208-.728-.364-.618.771-.616 1.234-.772-.463-1.233-.462-1.697.617-1.233-.309-1.543.309-.679.076.084.318h-2.501l-.16-.408-.334-.217-.515.025-.213.093-.925-1.428.772-.771 1.388-.462 1.696-.309.507-.127.008-.333-.123-.585.38-.19-.463-1.697-.617-.925-.925-1.389-1.851-.308-1.08-.771-1.388.154-1.85.772h-.215l-.209-1.322-.275-1.745-.643-.552-.673-.034-.034-.121-.762-.121-.184-1.838-.092-1.562-.276-1.011-.109-1.587-.175-.083-.578-.374-.276-.57-.467-1.241-.074-.92.461-.911.1-.499-.269-.498-1.561-1.889-.724-1.272-.266-.164-.273-.313-.214-.633.029-.654.297-.849.283-.607.229-1.75.933-.79.926-.154 1.851.154 1.234.925.926-.462.925-1.08v-.763l.154-.087.186-.4.173-.69.146-.497.28-.559.341-.415.415-.311.648-.403.637-.521.378-.717-.283-1.143-.334-.813-.215-.507-.437-.707-.861-.901-1.573-.554-.684-.168-.77-.179-.796-.163-.489-.123-.464-.2-.726-.813-1.823-3.481-.259-.56-.24-.633.158-3.684.098-.511.205-.353.395-.523.438-.365.219-.106.171.328 1 .742.551.336 1.029.331 1.097.348.858.401.531.426.37.581.338.39.726.802.463.239.511.146.493.122 1.537.115zm49.733 29.181l1.746.184 1.194 1.011 1.194.919.035.559.051.027.325.247.167.195-.263.028-.044.421.535.352.73.611 1.175 1.164.239.427.171.313.363.252 1.221.445.488.131.308.21.226.475-.077.753-.477.588-.906-.118.088 1.324.274.335.815.296 1.022.577.983 1.845.684 2.251.268.944.145.874.958.815 1.297.915 1.036 2.678 1.27 1.267.568.095.446.114.556.249.302.247.248.368.186.481.162.499.19.3 1.107 1.674.931.494.763 1.026.198 1.013.053.365-.019.416-.108.513-.194.422-1.004 1.378-1.682 1.63-.678.549-.437.363-.312.632 3.86.178 2.086.024.371-.009 1.945.025 2.16.585 3.593.663.537.159 1.232.717.86 2.188-.09.631-.205.672.157.507.594.328.812.454.273.554.245.927-.308 1.192-.308.85.736.04h1.609l.736-.004h6.467l3.208-.005 1.599-.004 1.259-.151 2.035-1.12.378-.747.357-.463 2.187-.762.502-.427.282-.581 1.533-1.661.673-.433 1.131-.708 2.385-2.028.96-.884.361-.13-.201.946.04.913-.239 1.645-.078 2.649-.304.307-.227.482-.059 1.236.005.933-.001.299-2.736 4.344-1.002.423v.051l-1.342 1.283-2.092 2.177-1.925.752-1.172 1.173-.587.753-.586 1.758-.029.828-.101.021-.121 1.578-.335 1.005-1.088 1.004-.753.752-4.771.168-1.916-.103-.087.037-.527.086-1.218.096h-.955l-.673-.108-.085-.073-1.151.148-1.294-.202.005.008-.888.111-.167.837.669.586-.251 1.005-.418 1.506-.754 1.088-.533.457-.395-.061-1.986.688-.976.884-1.229.801-.69.2-.873-.23-1.233-.539-2.443-.275-1.384-.747-.473-.391-.505-1.191-1.337.249-.377.309-.443.16-.57.168-.629.109-1.268.196-.428.061-2.763.327-.377-.153-.033-.022.149-1.64-.368-2.665-.768-.602.009-.044-.986-.271-.184-1.561-.042-1.213-.072-.115-.646-.842-.618-.489-2.247-.683-.398.749-.366.73-.15.211.037.778v.918l-.092 1.654-.368 1.194-.827.458-1.745-.367-.459-1.378-.198-1.121-1.463.223-.631.179-.373-.107-2.48.184h-1.838l-1.23-.44-.089-.26-.151-.78-.216-1.137.699-.317 1.194-1.032.219-.291.546-.635 1.224-1.213.999-.518.537-.173.57-.206.083-.375-.056-.07.54-.271.092-.826-.276-.735-.459-.276-.827-.826-.46-1.195.184-1.194.46-1.011.092-1.379-1.194-.183-.827-.643-1.103-1.47-.092-1.563-.367-1.378-.683-.312-.339-.942-.094-.251.105-1.527-.551-1.102-.369-1.194-.919-.642-.735-1.011-.092-1.01.368-1.011.735-.918-.367-1.379-.735-.918v-1.838l-.312-1.337.28-1.328 1.034-2.011.84-.544.053-.455-.117-.593-.262-.6-.434-.422-.324-.169-.673-.082-.975-.069-.594.044-.396.097-1.422.581-.178.122-.378 1.438-.643 1.746-.092 1.194-.46.828h-.826l-.46-.919-1.286.185-1.107.21-.141.196-.223 1.614-.919 1.103.093 1.838-.735.735-.919.828-1.378.367-.993-.239-1.711.893-.82.654-.333.175-.92-.288-.735-1.01-.735-1.287-.919-1.653-.276-.552-.325-.284-.087-.49-.266-.588-.291-.315-.975-2.177-.538-2.015.277-1.664.057-1.425.625-.272.311-.255.322-.412 1.073-1.141 2.316-2.015h.765l.562.34.404.363.415.392.052.044.943-.236.608-.472v-1.067l.091-1.102v-1.562l.406-.774 1.098-.827 1.135.196.588.065.448-.498.828-.735.917-1.103 2.021.184.528.316.214-.064.177.208 1.838.183 2.297-.183 1.011-.553.438-1.023.309-.174.551-.386.313-.462.087-.453.064-1.549-.268-3.483-.122-.73-.148-.793.338-.593.644-.642.705-1.058.048.032.048.039.025-.117.368-.642.643-.184.919.092.643.734 1.284.09z"/></g><g fill="#A3D62E" stroke="#0E5F69"><path d="M68.377 354.585l-.53.116-1.176.43-1.071.245v-.735l-.276-1.838-.459-.643-.546-.546-.002-.156-2.156-4.376-.719-1.091-1.683-1.012-.616-.175-.582-.323-.307-.452-.175-.398-.232-.603-.388-.946-.953-1.596-1.687-1.257-.285-.173.064-1.219-1.08-.926-.926-.771v-1.542l.617-1.388.463-1.233.154-1.233.617-1.543.771-1.08v-1.542l-.771-.463-.674-.192-.037-.227-.832-.043-1.233-1.234v-3.086l.617-1.234.617-1.08.512-1.875-.162-.246-.151-.333-.068-.513-.589-2.002-.407-.961.445-.181.295-.342.29-1.421-.044-.978-.304-.919-.042-.434.007-.581.222-.112.315-.388 1.367-3.198.098-.393.044-.456.002-.644.032-.551.224-.815.161-.336 1.141-1.402.802-.815.12-.163.258-.533.19-.606.283-1.354.095-1.066-.063-.579.049-.374.275-1.077.107-.378.292-.311.493-.165.385.039.316.258.149.473-.051 1.138.156.051 1.15-.832.191-.355-.186-.68-.391-.361-.215-.557.268-.458.432-.352.604-.35.439-.317.863-1.061.575-1.032 1.915-2.029 1.155-.946.866-.309.643 2.807.073 1.76.044.551.173.536.685 1.111.59 1.186.142.448.748 3.36-.099.741-.049.694.038.436.107.374.239.476.668.859.196.292.146.325.087.393.156 2.571-.171.352-.258 3.06-.027.918.114.389.098.583-.146.996-.123.51-1.123 2.367-.429.677-.33.266-.366.388-.317.413-.317.486-.307.754-.244.851-.097 1.016.033.535.141.817-1.132 1.273v1.233l1.697 1.389.12.06.18.981.17.51 1.058 2.282.175.228-.219.107-.438.365-.395.523-.205.354-.098.511-.158 3.684.24.632.259.56 1.823 3.481.726.813.464.2.489.123.796.163.77.179.684.169 1.573.554.861.9.437.708.215.507.334.813.283 1.142-.378.718-.637.521-.648.402-.415.311-.341.414-.28.559-.146.497-.173.69-.186.399-.154.088v.762l-.925 1.08-.926.463-1.234-.925-1.851-.154-.926.154-.933.79-.229 1.749-.283.608-.297.85-.029.654.13.375zm7.196 25.807l.746 1.356 1.188-.264-.148.949v1.46l1.213.746-.062 2.287.153.276.941 1.601.49.618 1.968.914 1.746 1.194 2.297 1.286 1.378.919-.091 1.47-.552.643-.918.184-1.298.089-.095.132-.688 1.541-1.022 2.314-.848.149-.184.918-.276 1.471.559-.088.912.455 1.102.645.828 1.378.275 1.285.092 2.114-.643.828-.735.734.367 1.194-.275 1.103-.276.643-.481.369v.1l-.724.224-2.68 1.086-.337.285-.253.555-.027.612-.109.514-.208.421-.332.409-.782.82-3.179 2.748-1.38.508-1.521.01-.308-1.865.209-.776-.109-.401-1.19-.804-.255-1.118.16-.575.46-.643.827-.55.092-1.195-.828-.367-1.102.183-.551.643-.736.642.006.042-.104.036-.1 1.01-.185 1.582-.306.762-1.355.978-.009-.174-.359-.867-.485-.616-1.144-1.683-1.072-1.813-1.883-4.139-1.092-2.794-.297-1.028.19-.851-.021-.504-1.627-2.028-.681-1.101-.415-1.687-.068-1.697-.605-1.149-.799-.579-.497-1.644-.122-1.14-.951-.986-1.142-.833-.421-1.816h.13l.576-.124.439-1.053-.113-.619.07-.663.46-.771.429-.431.349-.135 2.455-.801 2.392-.837.512-.961-.013-.41 1.282-3.507.636-1.382 1.135-1.011.268-.23.59-.377.35-.131.627-.417 1.411-2.046 3.399-.655.389.049.089.518.376 1.121.155.323.371.376.878.827.624.313.355.147 2.123 3.227zm79.85 111.669l-1.007-.201-1.373-.12-1.269-.732-.272.32-.394-.294-1.194.183-1.929.735-1.563.091-2.021.828-.735.826-.953.502-.087-.087-.166-.329-.264-1.195-.368-.636.184-1.653-.276-1.563-.735-1.379.735-1.193.459-.734.551-1.012v-.836l-.263-.393-.795-1.062-.308-.69-.205-.681-1.053-2.949-.999-1.969.148-.428.622-.094.235-.28-.929-1.476-.544-.21-.361-.139-.31-.674-.158-.472-.429-2.916-.059-.434-.054-.556.349-1.625.46-1.029.344-.131.471.27.367.675 4.434 3.244.164.029 1.124-.152 1.562-.459.287-1.022.275.35.953.705 2.023.06 2.011.055.572-.231 1.241-.061 1.71.629.614.321 2.711 1.76 3.812 1.927 2.156.751 1.029.657 1.004.983.195.306.473.891.634 1.22.117.375.058.433-.041 2.299-.134.679-.465 1.52-.295.555-.39.23-.292.208-1.271 1.339-.19.318-.115.516-.259.359-.94.432-1.039.495-1.41.741-.493.565-.169.441.114.373.285.515.025.704-.088.426-1.009.214-1.224.222-1.534-.166-.629-.383-.555-.193-.384.038-.509.524z"/><path d="M180.849 536.979l-.868.397-1.116.782-1.763.519-1.394-.587-.39-.116-1.078-.192-1.021-.189-.529-.233-.941-.696-.373-.69-.279-.332-.879-.613-.688-.323-.539-.219-1.412-.886-1.868-1.409-1.144-1.14-.8-1.1-.372-.378-1.64-.946-.614-.286-1.519-.448-.617-.146-.622-.021-.36-.02-.566-.047-.484-.058-1.091-.341-.426-.357-.576-.587-.578-.433-.397-.242-.534-.167-1.541-.606-3.71-1.608-1.388-1.205-1.631-.819-.824-.313-2.638-.894-.614-.146-3.458-1.239-2.261-1.827-.605-.523-.824-1.129-2.202-1.193-1.495-.45-1.534-.389-.88-.427-.434-.247-.404-.381-.166-.546-.54-.768-.615-.329-2.083-.846-1.102-.498-1.896-1.032-.966-.548-2.024-.931-1.302-.475-.463-.455-.409-.432.408-1.048.551-1.653 1.379-1.746 1.653-.919.796-.398 1.613-.248.038.121.135-.056.109.518.336.351.69.19.454.066 1.428.336 1.5.393.529 1.609.449 1.441 2.005 1.985.515.313.561.132.529.007.39-.108.509-.332.415-.331.405-.077.268 1.097.096 1.323.175.487.595-.014.636-.364.128-1.505.735-1.562.459-1.012 1.654-.826 1.01-.46-.092 1.012.459 1.286.743.418 2.361-.288.98-.461.405-.23.75-.365.407.038.688.386.832-.37.459-.92.735-.917 1.563-.368.827-1.193 1.102-1.471.552-1.287-.184-1.194-.092-1.377.368-1.194.551-.92.643-.275 1.011-.274.287-1.149.54.046 1.007.202.509-.527.383-.038.556.193.629.382 1.534.166 1.224-.221 1.009-.215-.133.784.23.503.673.837.393.472.295.2 1.031.244.456-.009 1.875-.371 1.802.712.309.373.462-.02.439-.681.309-1.006-.032-.717-.236-.403-.183-.411.263-.54.491-.029.385.233 1.421 1.793 1.024 1.418-.088 2.689-.229.395.066.434.549.334.366.13 2.453.658 1.687-.788 1.038-.622.036-.406 1.832.508.641.543.544.569.39.232.376-.079.404-.47.272-.23.427-.107.285.103.138 1.281-.185 3.215 1.103 1.288 1.103.275 1.172-.148-.023 1.014.213 1.836.508.689.356.388.434.317.343.275.234.274.127.369-.078.401-.457.733-.13.713.925 1.541.682.512.203.409-.098.521-.171.589-.119.777-.004.888.036.903-.024.741-.034.485-.139.926-.266.436-.454.545-.389.365-.383.363-.209.427v.459l.152.454-.657.263-1.194-.367-1.379-1.011-.734-.367h-.827l-.368.643.368.552.643.642.459.275.2.425-1.044.497-1.696 2.316.171 1.087-.171.955-.422.2-.6.216-1.136.943-.21.299-.109.383.012.459.146.591.59 1.278.327.314.834 1.14-.504 1.906z"/><path d="M139.631 505.645l-.743-.418-.46-1.286.092-1.011-1.01.46-1.653.826-.46 1.011-.735 1.562-.129 1.506-.636.363-.596.014-.175-.486-.097-1.323-.268-1.097-.405.076-.415.331-.509.333-.39.108-.529-.008-.561-.131-.515-.314-2.005-1.984-.45-1.441-.529-1.608-1.499-.394-1.429-.337-.453-.066-.69-.19-.337-.35-.109-.518.418-.809.156-.607.059-.445v-.863l-.066-.542-.044-.107-1.166-1.009-1.011-2.021-1.011-1.929-.551-.736-.666-.237-.213.294-.41.338-1.197.126-.023-.097-.706-.055-.735-2.022-.276-1.928.46-1.103.184-2.113.155-3.176.123.038-.003-.078h.734l1.563.46 1.929-.552.368-.735.643-1.838.092-1.929.056-1.277-.058-.119-.135-.669.039-.59.179-.682-.447-.598-.868-1.126-.302-.209-.424-.205-.405-.332.571-1.948 1.821-.54.461.205.045.105.569-.283 1.103-1.194.827-1.104 1.103-.551 1.287-.827.826-1.653 1.379-.461.879-.627-.383-.642.138-.515-.359-1.799-.46-1.838-.551-2.021-.479-1.801-.235-.341-.379-.053-.192-.654-.735-.918-.354-.331.519-1.456.07-.148 1.146.1.919-.645.476-.516.005.009.805-.09 1.378 1.011 1.47.275 1.102-.184.735-.461h1.195l.551.094-.05.819-.148-.009.356.781 2.339 4.622.917 1.053.299-.217.951.898.229.278.577 1.213.135.499 1.286.858 1.103 2.021.826 1.928.46 1.839 1.194 1.562.827 1.38-.093.433.011.015-.286 1.02-1.562.46-1.123.152-.164-.029-4.434-3.245-.367-.674-.47-.269-.344.13-.461 1.03-.349 1.625.054.556.058.433.429 2.916.158.474.31.673.36.139.545.21.929 1.476-.235.28-.622.093-.148.43.999 1.967 1.053 2.95.204.681.309.69.794 1.061.263.393v.836l-.551 1.01-.459.735-.735 1.194.735 1.378.276 1.563-.184 1.654.369.636.263 1.196.166.327.087.088.952-.502.735-.826 2.021-.828 1.563-.091 1.929-.736 1.195-.183.393.293.273-.319 1.269.733.833.072-.287 1.149-1.011.276-.643.275-.551.918-.368 1.194.092 1.379.184 1.193-.552 1.288-1.102 1.469-.827 1.194-1.563.369-.734.917-.459.919-.832.369-.688-.386-.407-.037-.75.365-.405.23-.979.461-2.366.289zM52.284 320.1l-.617 1.234v3.085l1.233 1.233.832.044.037.226.674.192.771.463v1.543l-.771 1.079-.617 1.543-.154 1.233-.463 1.234-.617 1.388v1.543l.926.771 1.08.926-.064 1.218.285.173 1.687 1.257.953 1.595.388.947.232.603.175.398.307.452.582.322.616.176 1.683 1.012.719 1.091 2.156 4.377.002.155.546.546.459.643.276 1.838v.735l-.05.011.05.264.551 1.194.827 1.562.827 1.654.735 1.928.275 1.654-.643.919-.735.827-1.01 1.01-.614.206-.252.584-.894.22-.66-.577-1.08-.309-1.234 1.081-1.234.462-1.155.577-.113-.542-.093-.377-.71-.442-.087-1.221v-1.234l-.926-.617h-.771l-2.005.463-1.08-.309-.309-1.388-1.233-.771-.926.462-1.079.617-.926.925-.309.617-.771.616-1.08.463-.979-.062.035-.139-.063-.396-.705-1.446-1.591-1.333-.352-.127-1.136-.249-.213-.067-.548-1.425v-1.08l-.334-.471.007-.042-.156-2.99-.029-.472.387-.144.148-.578-.069-.54.101-.959 1.131-.544 1.476-1.49.087-.675-.21-.4-1.096-.269-1.402-.223-2.363-2.808-.277-2.352.073-.389.292-.488.414-.351.449-.28.806-.351.604.073h.504l.424-.628.268-.721.587-2.88-.146-.328-1.586-.774-.109.022-.259-.277-.325-.857.071-.057-.181-.547-.17-.309-.305-.305-.246-.465-.35-1.481.35-2.803 1.06-1.292.382.054-.1-2.9-.627-.863-.603-2.131 1.446-2.09 1.025-1.138.371-.346.497-.023.352.024 1.463.195.65.443.466-.083.444-.409 1.453-1.818.178-1.5.001-.728.216-.426.526-.69.295-.275.624-.447.578-.382.415-.179.768-.263.254-.072.407.96.589 2.003.068.513.151.333.162.246-.512 1.875-.615 1.082z"/><path d="M153.304 431.593l.473.391 1.384.746 2.443.275 1.234.539.872.23.69-.199 1.229-.801.975-.885 1.987-.687.206.031v1.548l-.368 2.114-.827 1.378-1.195 1.287-.55.642 1.194 1.379.324.549-.158.717.568.663.368 1.931 1.47.733 1.654 1.194 1.01 1.379.551 1.287 1.379.642-.465.93.114.03.099.075-.574.526-1.286 1.011.46.735.735 1.011.643.642.184 1.654.092 1.103 1.011.735.695-.07.04.07 1.103-.368 1.47-.091 2.022-.553.827-.091 1.102 1.286.919 1.561 1.469 1.011 1.654.551 1.011.184.219.731.192.1.048.915.55 1.653.276 1.285.827.185 1.103-.735.736-.644.693-.818.172.029.237-.772.735-.276 1.378.553 2.113.183 1.747.551 1.201-.052.036-.05 1.427.286-.184 2.572-.092 1.93-1.746 1.93-1.47 1.653-1.286 1.561-.551 1.011-1.286 1.47-1.47.644-.185 1.285-.092 1.103.368 1.653-.276 1.746-.275 1.653-.551 1.379-1.011 1.652-.276 1.654-.459 1.194-1.194.827-.459.734.403.404-.003.075.535.835.424.465.463.118.814 1.22.303 1.877-.235.454-.35.522-.103.372.126 1.954.171.321.313.445.109.381.059.558.007.366-.11 1.502-.826.452.093.813-.01.455-1.172.147-1.102-.275-1.103-1.286.184-3.217-.137-1.281-.285-.103-.426.107-.273.232-.404.469-.376.079-.391-.231-.543-.57-.641-.542-1.832-.509-.036.406-1.038.622-1.687.787-2.453-.657-.366-.13-.548-.334-.066-.434.23-.395.088-2.689-1.024-1.418-1.421-1.791-.385-.235-.49.029-.264.541.183.41.236.403.032.717-.309 1.007-.438.68-.462.02-.308-.373-1.802-.713-1.875.371-.455.008-1.031-.243-.296-.2-.392-.471-.673-.838-.229-.504.133-.784.088-.425-.025-.704-.285-.516-.114-.373.168-.44.493-.565 1.411-.741 1.038-.495.941-.431.259-.36.114-.515.19-.318 1.27-1.34.293-.207.39-.229.295-.556.466-1.52.134-.679.041-2.298-.059-.434-.117-.375-.634-1.22-.474-.891-.195-.305-1.004-.983-1.029-.657-2.155-.752-3.813-1.926-2.711-1.759-.613-.323-1.71-.629-1.241.061-.571.23-2.011-.054-2.023-.06-.953-.705-.287-.363.094-.434-.828-1.38-1.194-1.561-.459-1.838-.827-1.929-1.103-2.022-1.286-.857-.135-.499-.577-1.212-.23-.279-.951-.897-.298.215-.917-1.052-2.339-4.623-.355-.78.147.009.043-.691 1.845-.496 1.194-.092.827.183.464.388.025-.009.43.907.551.46 1.287-.919 1.286-1.012 1.378-1.1.827-1.103-.735-1.747-.735-1.102-.184-.644-.476-.693-.902-.226-.552-.367-.275-1.47.227-.953-.138-.049.371-1.295.341-1.249.112-.117.331-.409.205-.293.283-.465.648-1.334.205-.542.147-.544.377.154 2.763-.327.429-.061 1.268-.196.629-.109.57-.168.443-.161.377-.309 1.337-.25.499 1.205zM78.51 386.926l.062-2.287-1.213-.746v-1.46l.148-.949.688-.153 1.388-.926.925 1.429.213-.094.515-.025.334.218.16.408h2.504l-.084-.319.679-.076 1.543-.308 1.233.308 1.697-.616 1.233.462.772.463.616-1.234.618-.771.728.364.031-.208.8.648.56.199.673 1.157 1.134 2.857.457.612.887.106.311-.23.302-.488-.329-1.315-.462-3.856 1.542-1.542 1.654-.595.604.949-.058.078-.181.412-.161 1.092-.078.754-.146.508-.056.194.148.854.404 1.066.021-.009-.057 1.423-.277 1.666.539 2.015.975 2.177.291.315.266.588.087.49.325.283.276.552.919 1.653.735 1.287.734 1.011.92.287.333-.174.819-.653 1.712-.893.993.238 1.379-.368.919-.827.735-.735-.093-1.838.919-1.102.222-1.613.141-.197 1.107-.211 1.286-.184.459.919h.827l.46-.827.092-1.194.643-1.746.378-1.437.178-.122 1.422-.581.396-.098.594-.044.975.068.673.083.324.169.434.422.262.599.117.593-.053.454-.84.544-1.034 2.012-.279 1.327.312 1.337v1.838l.735.918.367 1.378-.735.919-.368 1.011.023.252-.391.391-1.011 1.194-.918 1.011-.368 1.286-.643.735-.551.552-1.103.092-.918.642-.552.276-.266.531-.312-.031-.341.512-.919.642-.827-.642-.398-.597-.165.043-.447-.365-1.102-.093-.919.735-1.103.828-1.045.836-.356.06-.221.017-1.409 1.291-1.195 1.011-.919.644-.918 1.287-.827 1.377-.606.335-.404.034-.459.734-.919.368-.275 1.379-.285.814-.091.04-.083.248-1.287-.092-1.653-.459-.919-.276-1.746-.184-.828-.366-.918-.919-1.287-.092-1.377.46-1.378.918-1.194.827-1.566.368-.047-.053-.251.034-.456-.167-.339-.282-.183-.306-.16-.866-.392-.269-.768.174-.449-.272-.205-.523.015-.308v-.099l.481-.371.276-.642.275-1.102-.367-1.194.735-.736.643-.826-.092-2.114-.275-1.286-.828-1.379-1.102-.644-.912-.455-.559.088.276-1.47.184-.918.848-.149 1.022-2.313.688-1.543.095-.131 1.298-.089.918-.184.552-.642.091-1.47-1.378-.919-2.297-1.286-1.746-1.195-1.968-.914-.49-.618-.941-1.602-.156-.276zm50.739 73.985l-.879.627-1.379.46-.827 1.653-1.287.828-1.103.55-.826 1.104-1.103 1.194-.569.284-.046-.105-.461-.206-1.821.54-.57 1.949.405.332.423.204.302.209.868 1.127.446.598-.179.681-.039.59.134.67.058.118-.056 1.278-.091 1.929-.644 1.838-.368.735-1.928.552-1.563-.46h-.734l.003.078-.554-.17h-1.287l-.714.333-.129-.15h-1.086l-1.47-.826-.397-.651-.1-.016-1.792-.839-.534-.957-.085-1.744.563-1.075-.425-2.15.445-.54.366-.27.2-.3.263-.612.001-.43-.145-.061.264-.737-.092-.827-.55-.553-1.103.095-.919.733-.673.493-.146-.009-.805.034-.563.056-.434.004-.316-.166-.074-.258-.572.03-.551-.736.734-1.009.735-1.286.275-1.564v-1.103l.145-.841.004-.001-.057-.536 1.103-.46.459-1.011.459-.642.552-1.012.643-.642-.275-.827.183-1.194.374-.802-.278-.187-.022-.066h1.397l1.837-1.931 2.112-1.837 1.931-1.746 1.561-2.388.136-.34.048-.028.184-2.113 1.011-.643 2.35-.366 2.519.091.828-.093.325.248.137.027h1.375l2.481.552 1.011.919.275 1.194-.649.177.483.822-.477.518-.918.643-1.146-.099-.07.147-.52 1.456.357.332.735.918.192.654.379.054.235.341.48 1.801.551 2.02.46 1.838.359 1.798-.138.515.383.644z"/><path d="M116.979 420.414l.241.114.859-.057 2.113 1.102 1.286.644 1.378.643.751.535.803-.08.595-.015.759.066.216 1.137.151.779.089.261 1.23.44h1.838l2.48-.184.373.106.63-.179 1.463-.224.198 1.122.459 1.378 1.746.367.827-.459.367-1.193.092-1.654v-.918l-.036-.778.15-.212.366-.729.398-.75 2.247.684.617.49.646.841.072.115.042 1.212.183 1.562.986.271-.009.043.768.603.368 2.665-.149 1.64.033.022-.148.542-.205.544-.648 1.334-.283.464-.205.292-.332.41-.111.118-.341 1.249-.37 1.295.138.048-.227.952.275 1.471.552.367.901.227.476.693.184.643.735 1.103.735 1.744-.827 1.104-1.378 1.102-1.287 1.012-1.286.919-.552-.46-.43-.908-.025.009-.464-.387-.827-.184-1.194.092-1.845.495.008-.128-.551-.093h-1.194l-.735.46-1.103.185-1.47-.275-1.378-1.012-.805.091-.487-.832.648-.177-.275-1.194-1.011-.918-2.48-.553h-1.376l-.136-.027-.325-.248-.828.093-2.519-.091-2.351.366-1.011.643-.184 2.114-.048.027-.135.34-1.562 2.388-1.93 1.746-2.113 1.837-1.838 1.931h-1.397l-.134-.393.033-.185-.348-.755-.092-2.297.348-1.807-.096-.178-1.02-1.904.044-.411.285-.432-.134-.535-.374-.293-.055-1.791h-2.664l-.506.175-.594-.27-.523-.144-.331.066-.619-.38-1.671-.54-.121-.313-1.392-1.784-1.063-1.043-.138-.333-.081-1.197-.051-1.083-.147-.587-.406-.275-.385.062-.634-.021-.77-.326-.592-1.002-1.692-3.44-.218-2.185.01-.498.112-.891.041-.347-.159-.387 1.089-.163 1.011.275.338.593.181-.025.277-.036.673.479 1.195-.184.918-.919 1.286.185 1.286-.552.368-.919-.184-.826-1.47.091-.105-.986h.002l.195-.667.552-.183.643-.552.918.091.828.644 1.286-.275 1.378-.275 1.103-.553 1.93-.735 1.194-.643h.459l.735.827.552.621.373-.035.809.075.471-.013.48-.13.396-.146.317-.555.734-.459 1.471-.735 1.194-.184.523.202.68.018zm-44.03-54.243l.092 1.562.184 1.838.762.12.034.121.673.035.643.551.275 1.745.209 1.322h.215l1.85-.771 1.388-.155 1.08.771 1.851.308.925 1.389.617.925.463 1.696-.38.19.123.585-.008.333-.507.127-1.696.309-1.388.462-.772.771-1.388.926-1.876.416-.746-1.356-2.121-3.226-.355-.147-.624-.313-.878-.828-.371-.377-.155-.323-.376-1.12-.089-.52-.389-.049-3.399.656-1.411 2.045-.627.415-.35.133-.59.377-.268.23-1.135 1.011-.636 1.382-1.282 3.507.013.41-.512.961-2.392.838-2.455.802-.349.135-.429.43-.46.773-.07.662.113.619-.439 1.053-.576.124h-.13l.037-.118-.022-.625-1.108-1.704-.507-1.872.066-.434-.028-.85-.179-.69-.156-.417-1.262-1.426-1.435-1.562.152-.439-.027-.359-1.336-2.679-2.884-3.111-.313-.298-.399-.215-.351-.142-1.346-1.115-.39-.334-.361-.382-.59-.864-.98-1.696-.288-1.119-.2-.631-.785-1.393-.57-.654-.3-.318-.648-1.055-.091-.603.146-.513-.365-1.116-.136-.352-.44-1.021-.194-.292-1.053-1.042.463-.536 2.458-2.54.709-.632.397-.213 1.733.433.578.48.029.472.156 2.99-.01.045.333.476v1.079l.548 1.425.213.067 1.136.249.352.127 1.591 1.333.705 1.447.063.396-.035.138.979.062 1.08-.463.771-.616.309-.617.926-.925 1.079-.617.926-.462 1.233.771.309 1.388 1.08.309 2.005-.463h.771l.926.617v1.234l.087 1.221.71.442.093.377.113.542 1.155-.577 1.234-.462 1.234-1.081 1.08.309.66.577.894-.22.252-.584.614-.206 1.01-1.009.735-.827.643-.919-.275-1.654-.735-1.929-.827-1.653-.827-1.562-.551-1.194-.05-.265 1.121-.255 1.176-.431.53-.115.087.257.273.313.266.162.724 1.272 1.561 1.89.269.498-.1.498-.461.911.074.92.467 1.241.276.569.578.374.175.083.109 1.588.275 1.006z"/><path d="M36.405 336.207l.487.578.072-.016.526-.123 1.259.477.26.56.375-.224 1.348-1.063.325.858.259.275.109-.022 1.586.775.146.328-.587 2.88-.268.721-.424.628h-.504l-.604-.073-.806.351-.449.28-.414.351-.292.488-.073.39.277 2.352 2.363 2.808 1.402.224 1.096.268.21.4-.087.675-1.476 1.49-1.131.544-.101.959.069.539-.148.578-.387.144-.578-.48-1.733-.432-.397.212-.709.631-2.458 2.541-.463.535-.03-.51-.078-.63-.278-.45-1.526-1.845-.399-.278-.645-.399-.968-1-.248-.349-.285-1.032-.302-.761-2.395-2.164-.463-.275-.873-.375-2.184-1.034-2.38-1.312-1.324-.836-.533-.582-.414-.317-.463-.288.18-.121.454-.62.917-1.35.612-.977.181-.682.423-.826.978-1.24.755-.85.395-.375.319-.224.622-.263 1.588-.491.323-.302.969-.775.815-.62 1.085-1.357.349-.621.116-1.395.308-.449-.026-.382.208-.354.337.207.415.309 1.966 1.572.849 1.573.341 1.003.719.319.62.194.465.349.425.778z"/><path stroke-miterlimit="10" d="M77.841 436.865l.667.989.268.766.188.537-.192 1.179.577 1.625.149 1 .059.9-.607 1.264.923.117.586.288.405.221.305.374.375.413 1.962 2.159 1.015.862.643.728.386.536.183.849.04.102.639 1.639 1.99 3.827.609.694 1.448 2.064.127 1.129.136.596.224.826.249.363.245.259.563.489.468.44.446.548 1.42 1.792.709.059v.007l.644-.558.734-1.653 1.194-.736 1.287-.918.919-.827 1.102-.459 1.011.368h1.746l.13.457.082-.014-.057-.536 1.103-.46.46-1.011.458-.642.552-1.012.644-.643-.277-.827.185-1.194.374-.802-.279-.188-.157-.46.033-.185-.348-.755-.092-2.297.348-1.807-.096-.179-1.02-1.903.044-.411.286-.432-.134-.535-.375-.294-.055-1.791h-2.664l-.506.176-.594-.271-.523-.142-.331.066-.618-.381-1.671-.54-.121-.314-1.392-1.784-1.063-1.043-.138-.333-.081-1.197-.052-1.084-.147-.586-.406-.276-.385.063-.634-.021-.77-.325-.592-1.003-1.692-3.44-.218-2.185.01-.499.112-.891.041-.346-.28-.68-.755-.486-.285-.216-.217-.511.107-.509.02-.688-.039-.437-.02-.587-.131-.524-.751-.797-.252-.36-.167-.552-.054-.547-.137-.591-.176-.427-.461-.586-.215-.456-.058-.661-.182-.604-.275-.694-.306-.345-.251.033-.456-.166-.339-.282-.183-.307-.16-.865-.392-.27-.768.175-.449-.273-.205-.523.015-.306-.724.224-2.68 1.085-.336.287-.253.555-.027.612-.109.514-.208.422-.332.409-.782.82-3.179 2.748-1.38.507-1.521.01-.308-1.864.21-.776-.109-.402-1.19-.804-.255-1.118.16-.574.459-.644.827-.55.092-1.195-.828-.367-1.102.183-.551.643-.736.643.006.041-.103.037-.1 1.01-.185 1.581-.306.762-1.355 1.991 1.177.504.775.921 1.117 1.806.707 1.465 1.203 4.373-.092.638-.579.061-.288.585.313.808.823.582.58.178.336.158 1.122.628 1.935 1.179 1.224 1.067 1.157 1.716"/><path d="M190.902 515.784l.08.096 1.01-.179 1.379-.094 1.103.094.295.295.112-.032 2.65.706.341.449.788 2.235.175 1.6-.092.403-.025.495.62 1.885.162.459 1.866 1.991 1.216 1.17.536.227 1.025.176.484.527-1.451 1.396-.064 1.361-.092 1.469-.517.621.05.085-.544.028-.918.275-.245-.609-.307-.061v-.615l-.184-1.286-.827-.459-.683.185-.116-.06-.893.024-.56.317-.586.744-.429 1.331-.073.507.292.693.127.352-.014.537-.99 1.222-1.107 1.287-.385.245-.611.235-.59.157-.288.214-.354.535-.614 1.152-.848 1.677-.59 1.178-.334.479v.861l-.92 2.113-1.01.92-1.562.642-1.194.735h-.773l-.024-.017-.175-.212-.153-.318-.413-.317-1.6-.926-.965-1.645-.185-1.381-.139-.955-.424-1.733-.334-.173-1.185-1.08-.127-.174-.021-.35-.871-.523-.703-.298 1.763-.518 1.116-.781.868-.398.501-1.905-.834-1.141-.327-.313-.59-1.279-.146-.592-.012-.458.11-.382.21-.3 1.136-.944.6-.214.422-.202.171-.955-.171-1.087 1.696-2.316 1.044-.495-.2-.425-.459-.275-.643-.644-.368-.552.368-.644h.827l.735.368 1.379 1.011 1.194.367.657-.262-.152-.454v-.46l.209-.427.386-.363.389-.364.454-.545.266-.438.139-.926.034-.484.025-.741-.036-.902.004-.889.119-.776.479-.068.435.285zM93.335 427.77l-.338-.593-1.011-.275-1.089.162-.121-.293-.756-.485-.285-.216-.217-.512.107-.507.02-.69-.039-.436-.02-.586-.131-.524-.751-.798-.252-.36-.167-.553-.054-.548-.137-.59-.176-.427-.461-.586-.215-.456-.058-.66-.182-.605-.275-.695-.258-.292 1.566-.369 1.194-.826 1.378-.919 1.377-.46 1.287.092.918.919.828.368 1.746.183.919.276 1.653.458 1.287.092.083-.248.091-.041.285-.814.275-1.379.919-.367.459-.735.404-.034.607-.334.827-1.379.918-1.285.919-.643 1.195-1.011 1.409-1.292.221-.016.356-.06 1.045-.837 1.103-.826.919-.736 1.102.093.447.365.165-.042.398.596.827.643.919-.643.341-.512.312.033.266-.531.551-.276.918-.643 1.103-.092.551-.552.643-.735.368-1.286.918-1.011 1.011-1.194.391-.39.069.758.735 1.011.918.643.369 1.194.551 1.103-.105 1.526.095.252.338.941.683.313.368 1.379.092 1.562 1.103 1.47.827.644 1.194.183-.092 1.378-.459 1.011-.184 1.194.459 1.195.827.827.459.275.276.735-.092.826-.54.271.056.071-.083.374-.571.207-.536.173-.999.517-1.225 1.213-.547.635-.218.292-1.195 1.031-.699.317-.759-.066-.595.015-.803.08-.75-.534-1.379-.643-1.286-.644-2.114-1.103-.858.057-.241-.113-.674-.018-.523-.202-1.194.184-1.471.735-.734.459-.317.555-.396.146-.48.13-.471.013-.809-.075-.373.035-.552-.621-.735-.827h-.459l-1.194.643-1.93.735-1.103.553-1.378.275-1.286.275-.828-.644-.918-.091-.643.552-.552.183-.195.667h-.002l.105.986 1.47-.091.184.826-.368.919-1.286.552-1.286-.185-.918.919-1.195.184-.673-.479-.277.036-.181.026zM9.601 340.008l-.294-.547-.479-1.096.274-1.096.684-.822 1.164.068.822-.273.327-.653.011.003.213-.021.135-.425.479-.411.548-1.507-.138-1.782-.685-1.575-1.301-2.056-1.234-.754-1.438-.686-1.507-1.233.137-.96.616-1.027.51-.271.237-1.229.447-.21.654.075.321-.1-.593-.594-.685-1.233-1.781-1.37-2.056-2.261.068-1.576.548-2.877.48-2.261.664-.899.218-.574.329-.515 2.464-2.258.516-.339.39 1.17 1.137.93h2.326l2.532-.156 1.396-.517.152-.406.212-.038 1.024-.9.266.464.362.465 1.033 1.241.414.981.104.753-.677 1.005-.022.489.308.444.949.522.336.122.56-.228.43-.229 1.263-.962.628-.578.331-.356.494-.051.982.207.93.62 1.603.621 1.447.516.878.776.504-.357.042.025.559.054.589-.186.579.205 1.809.052.959.294.357.316.341 1.056.077.686 1.118 2.554.116.543 1.395 1.553 1.402 1.373.944-.013-.371.346-1.025 1.138-1.446 2.09.603 2.131.627.863.1 2.899-.382-.053-1.06 1.292-.35 2.803.35 1.482.246.464.305.305.17.309.181.548-1.419 1.12-.375.224-.26-.56-1.259-.477-.526.123-.072.016-.487-.578-.427-.775-.465-.349-.621-.194-.719-.319-.341-1.003-.849-1.573-1.966-1.572-.415-.309-.337-.207-.208.354.026.382-.308.449-.116 1.395-.349.621-1.085 1.357-.815.62-.969.775-.323.302-1.588.491-.622.263-.319.224-.395.375-.755.85-.978 1.24-.423.826-.181.682-.612.977-.917 1.35-.454.62-.18.121-.107-.068-.786.147-1.37.617-1.439-.959-1.577-1.302-.89-.685-.299-.648-1.632-.683-.993-.592z"/><path d="M210.646 515.454l.727.385 1.877.375.251.752-.877 1.001-.501 1.377 1.001 1.001 1.628-.751h.876l.876 1.378 1.378.25 1.627-.627.751-1.376.893-.55.15.11.626.782.19.002.195.502.46 1.011v1.654l-.117.663-.035.015-.761.971-.127 1.357.164 1.108.311.379.034.503-.673.487-.999.507-1.48 1.211-2.259 2.701-1.163 2.311-.341.352-1.036.454-1.161.599-1.076 1.002-.458.548-.655 1.325-.365.11-.624.133-.36-.016-1.829-.934-1.492-.774-1.667-1.215-.298-.332-1.804-3.06.516-.621.092-1.469.064-1.361 1.452-1.396-.484-.527-1.024-.176-.536-.226-1.216-1.171-1.866-1.991-.163-.459-.62-1.885.025-.495.093-.403-.175-1.6-.788-2.235-.341-.449-2.65-.706-.111.032-.295-.295-1.103-.094-1.378.094-1.011.179-.081-.096-.438-.281-.479.067.171-.589.097-.521-.202-.41-.682-.512-.925-1.541.13-.713.456-.733.079-.4-.128-.37-.233-.273-.344-.276-.435-.316-.355-.388-.508-.689-.213-1.836.034-1.467-.093-.814.827-.452.11-1.503-.008-.367-.059-.557-.11-.381-.312-.444-.17-.322-.127-1.954.103-.37.351-.522.234-.454-.303-1.877-.814-1.22-.463-.117-.424-.466-.534-.836.002-.073-.403-.405.459-.734 1.194-.827.459-1.194.276-1.653 1.011-1.654.551-1.378.275-1.653.275-1.746-.368-1.653.092-1.103.184-1.287 1.47-.643 1.287-1.471.551-1.01 1.286-1.563 1.47-1.653 1.746-1.929.092-1.929.175-2.459 1.11-.206 2.573.275 2.297 1.012 2.02 1.103 3.538.626.376.183 1.967-.167 2.021-.459 1.011-1.103 1.01-.458 1.838-.736 1.378-.368 1.47-.734 1.746-.644 1.349-.858 1.474-1.067-.223 1.785.111 1.897.335.781-.558 2.455-.903 1.487.008 1.175-.032.969-.315 1.064-.77 1.362-.697 1.18.854 1.496.219.868.466 2.278.249.375.415.329.322.226-.149 1.42.334 1.229-1.227.445-.893.67-.334 2.121-1.116 1.339-1.117 1.228-1.34 1.675-1.116 1.561-.781 1.675.054.593-.141.141-.291 2.962 1.516 2.072 1.706 1.431.472.526.593.722-.107.483-.469.161-.458-.03-1.27 1.181-1.126 2.026-.109.232-.635-.273-.751-.625-1.753-.126-.625-1.252-1.002-.25h-1.251l-.376-1.501-1.377-1.126-1.252-.376-1.501-.376-1.253-.376h-1.377l-1.376.126-.251.75.251.751h1.126l1.126.126 1.502-.126.751.376.251 1.752-1.002.626-.626.625.25 1.253.876.5v1.627l-.751.125-.375 1.127-.876.376-1.251.5.376 1.378.25 1.377.376 1.126 1.002-.125h.751l.876.751.626.249.5-1 .501-.251.376 1.002.501 1.002h1.501l.028-.141z"/><path d="M199.527 530.493l.827.459.185 1.286v.615l.306.06.245.61.919-.275.543-.028 1.754 2.976.298.332 1.669 1.215 1.491.774 1.829.934.36.015.625-.132.365-.11 1.147.146 1.004.959.571.568.008.879.015 1.434-2.286 2.052-.946.845-.137-.011-.226.339-1.194.184-.46.643.184 1.285.368.919.459 2.023.092 1.836-.735 1.654-.919 1.654-1.745 1.652-2.757.552-2.939.185-1.839.368-.46-.46-.209-.393-.151.136-.175-.185-1.889-1.647-.756-.51-.446-.186-.697-.136-.321-.184-1.354-1.208-2.974-2.701-.455-.683-.621-.513-1.031-.612-1.386-.423-1.263-.907h.773l1.194-.735 1.562-.642 1.01-.92.919-2.113v-.861l.334-.479.59-1.178.848-1.677.614-1.152.354-.535.288-.214.59-.157.612-.235.385-.245 1.107-1.287.99-1.222.014-.537-.127-.352-.292-.692.072-.508.429-1.331.585-.744.561-.317.892-.024.115.06.688-.188zM23.12 302.753l-.577-.254-.546-.018-.792.127-.637 1.135.008.089-.179.113-.371.292-1.604 1.41-.212.038-.152.406-1.396.517-2.532.155h-2.326l-1.137-.93-.39-1.17.48-.315.711-1.402.553-.774.841-.597 1.017-.607.329-.397.136-.738.171-.558.244-.5.268-.333 1.672-1.085 1.257-.655.844-.472.786-1.046.17-.325.273-.55.51-.21 1.026-.017.434-.023.385-.097.344-.255.036-.052.873.268.62.207.259 1.137.309 1.137.362 1.085.104 1.758-.31 1.291-.361.982-.724.775-.776.458z"/></g><path fill="#3ACCCC" stroke="#CAF6F9" stroke-width=".5" d="M208.744 500.693l1.377 1.127.376 1.502h1.252l1.001.249.626 1.252 1.752.126.751.625.635.273-1.444 3.075 1.43 3.82 1.414 3.778.632.329 1.378.918 1.228.9-.893.55-.751 1.377-1.627.626-1.378-.251-.876-1.377h-.876l-1.626.752-1.003-1.002.501-1.377.877-1.001-.251-.752-1.877-.375-.727-.385-.024.134h-1.502l-.501-1.001-.375-1.002-.501.25-.501 1.002-.625-.25-.877-.752h-.75l-1.002.126-.376-1.127-.25-1.377-.375-1.376 1.252-.502.876-.375.375-1.127.751-.124v-1.628l-.876-.5-.25-1.252.626-.627 1.001-.624-.25-1.754-.751-.375-1.501.125-1.127-.125h-1.126l-.25-.75.25-.751 1.377-.125h1.377l1.251.375 1.502.376 1.251.377z"/></svg>