<svg xmlns="http://www.w3.org/2000/svg" xmlns:xlink="http://www.w3.org/1999/xlink" viewBox="0 0 1190.551 339.759"><image overflow="visible" width="2362" height="2235" xlink:href="F:\AGRORURAL\MARCA GESTION\5-GALERÍA DE FOTOS\V100D4.jpg" transform="translate(23.487 22.963) scale(.1008)"/><path fill="#E20613" d="M22.487 22.614h13.152v226.027H22.487z"/><path fill="#FFF" d="M335.855 36.295l-.015.16c-1.306 10.921-3.722 31.26-4.922 45.819-1.61 19.283-2.308 47.847-1.23 51.819 1.185 4.161 6.106 6.098 9.069 6.098 1.655 0 2.536-.584 2.992-1.07a2.703 2.703 0 0 0 .714-2.066l-.137-1.071c-2.369-19.07-1.033-43.594.502-60.819 1.898-21.478 3.479-34.245 4.253-39.797 17.058-1.519 38.444-2.058 52.601-1.291 1.975 0 2.856-1.063 3.19-1.701 1.185-2.165-.47-5.431-1.504-7.117-.228-1.58-2.491-1.67-25.381-2.552-20.035-.813-57.174 3.896-72.333 5.802-2.856.357-4.937.615-6.015.736-6.683.722-23.376 2.157-23.376 2.157-2.856.228-3.934 1.967-3.965 3.508-.075 2.567 2.78 5.673 5.56 6.023 8.825 1.116 26.43-.806 45.417-3 4.737-.544 9.628-1.107 14.58-1.638zM577.719 83.77c.258.053.562.075.881.075 3.129 0 7.595-2.59 7.823-7.541 0-4.641-2.309-7.648-6.153-8.02l-.561-.031c-4.952 0-7.625 6.099-7.61 8.408-.32 3.068 1.321 6.456 5.62 7.109zm6.851 46.078l-.774-.251c-1.458-.152-3.114-.091-4.998.175-.016-9.516-.198-17.339-.198-17.339.016-.137.243-11.347 3.934-19.762.501-1.117.41-2.286-.243-3.304-1.291-2.005-4.42-2.734-6.198-2.734-2.491 0-3.281 1.216-3.508 1.861-.319.805-2.066 3.235-2.704 4.322-8.263 14.764-15.341 22.26-21.038 22.26-2.142 0-3.6-.669-4.496-2.051-.212-.304-.365-.813-.516-1.314-.076-.228-.167-.456-.228-.706-.167-.653-.288-1.404-.395-2.194-.197-3.449.639-7.412 1.276-9.411 0 0 .121-.66.258-1.656 1.807-9.82-1.261-14.84-4.405-17.362a10.109 10.109 0 0 0-3.372-1.944c-.046-.015-.061-.045-.091-.045-.972-.373-1.641-.494-1.641-.494v.015h-.015a19.763 19.763 0 0 0-3.311-.402l-.03.008c-.015 0-.03-.008-.046-.008-.911 0-1.884.16-2.901.417-.076.023-.152.069-.244.084-.956.266-1.929.645-2.916 1.139-.121.061-.242.137-.364.205a20.87 20.87 0 0 0-2.902 1.823c-.107.091-.243.19-.365.28a25.576 25.576 0 0 0-2.856 2.582l-.273.274a29.11 29.11 0 0 0-2.81 3.509c-.015.031-.046.053-.046.091a33.605 33.605 0 0 0-4.617 9.782l-.031.516c-.471 1.724-.881 3.501-1.139 5.423-.532 4.109-.486 7.701.136 10.769v.183c.608 2.901 1.716 5.339 3.388 7.245 2.628 2.985 6.091 4.048 8.415 4.048l.183.008h.106c5.058 0 9.767-5.431 12.44-9.235 1.914 4.002 5.955 8.316 13.382 8.316v-.015c.03 0 .046.015.076.015 8.263-.137 15.372-7.542 20.157-14.24-.304 5.749-.334 11.666-.304 17.544l.015 4.215c-15.766 5.803-39.857 20.772-41.073 38.217-.289 4.966 1.276 9.425 4.511 12.896 3.691 3.964 9.205 6.205 15.539 6.296h.03c7.063 0 24.136-2.856 29.908-29.438.759-3.866 1.23-10.899 1.488-22.078 3.098-.638 5.605-.774 7.443-.395l.805.175.684-.494c.897-.653 1.367-1.58 1.321-2.628-.119-2.376-3.142-4.426-4.447-5.193zm-50.111-35.156c-.881 5.422-6.607 21.037-11.513 21.09-.32-.008-.729-.091-1.2-.699-1.489-1.898-2.234-7.397-.638-13.868 1.777-7.846 6.623-14.453 10.724-14.498 1.094.038 1.884.364 2.416 1.002 1.122 1.33.287 6.661.211 6.973zm32.992 60.249c-1.549 10.945-8.612 27.121-18.866 27.114-.349 0-.683-.015-1.003-.046-11.24-1.246-10.8-7.876-10.617-10.77.319-9.858 16.025-22.693 31.381-29.376-.045 4.002-.242 8.673-.895 13.078zm494.223-62.52c-.547-.95-1.443-1.496-2.415-1.496-.638 0-1.853.243-2.795 1.891-8.263 14.764-15.341 22.26-21.053 22.26-2.127 0-3.6-.669-4.496-2.051-.091-.152-.167-.456-.258-.661a7.355 7.355 0 0 1-.517-1.618c-.136-.516-.227-1.101-.319-1.716-.258-3.494.623-7.594 1.276-9.631 0 0 .121-.66.258-1.656 1.823-9.895-1.307-14.923-4.481-17.43-.015-.022-.061-.03-.091-.053-.896-.76-1.959-1.367-3.175-1.807-.046-.016-.076-.054-.121-.061-.972-.373-1.641-.494-1.641-.494v.015c-.015-.007-.045 0-.061-.007a19.488 19.488 0 0 0-3.296-.395h-.046c-6.653 0-16.465 6.979-20.293 20.187l-.016.068c-4.466 7.352-11.012 16.754-17.377 16.754-1.883 0-3.25-.463-4.192-1.42-2.035-2.111-2.218-6.645-2.127-10.854 0-4.26.76-5.795 1.474-7.275.562-1.154 1.139-2.347 1.352-4.701.167-1.511.684-6.107-2.673-7.982a8.99 8.99 0 0 0-4.36-1.139c-2.81 0-5.134 1.321-6.228 1.959l-.136.076c.334-.76.729-1.656.714-2.438.212-1.541-.684-4.139-2.02-5.78-1.063-1.313-2.385-2.058-3.722-2.149l-.471-.024c-4.678 0-6.805 7.177-6.805 13.854 0 1.245.03 2.043.06 2.574.016.296.046.479-.136.767-1.291 2.013-1.974 3.357-2.628 4.633-7.807 13.519-14.537 20.453-19.989 20.453-2.127 0-3.585-.669-4.497-2.051-.045-.061-.061-.175-.106-.244-2.081-3.554-.608-10.518.289-13.382 0 0 .137-.66.273-1.656 1.823-9.895-1.321-14.923-4.481-17.43-.03-.03-.076-.03-.107-.068-.896-.751-1.944-1.344-3.16-1.785-.045-.023-.075-.061-.121-.068-.972-.373-1.64-.494-1.64-.494v.015c-.03-.007-.061-.007-.091-.007a19.317 19.317 0 0 0-3.281-.395h-.031c-.911 0-1.869.152-2.856.402-.228.061-.471.167-.699.243a17.93 17.93 0 0 0-2.399.934c-.289.144-.578.319-.851.478-.79.426-1.549.897-2.325 1.458-.304.22-.592.456-.881.691a24.178 24.178 0 0 0-2.248 2.02c-.274.281-.562.562-.835.866-.744.82-1.443 1.716-2.142 2.673-.228.312-.44.601-.668.927a32.12 32.12 0 0 0-2.081 3.653c-.106.228-.228.41-.334.638a35.683 35.683 0 0 0-1.99 5.203l-.015.22c-.502 1.8-.926 3.691-1.185 5.719-.547 4.161-.471 7.792.182 10.876v.076c.228 1.146.623 2.172 1.017 3.167.107.228.137.509.244.729.577 1.246 1.276 2.369 2.142 3.35 2.612 2.985 6.076 4.048 8.4 4.048l.182.008h.061c5.074 0 9.798-5.461 12.471-9.273 1.899 4.018 5.955 8.354 13.382 8.354h.047c11.635-.19 21.022-14.742 24.759-21.508.015-.031.045-.038.061-.068l2.065-3.402c1.474-2.415 2.537-4.162 3.069-5.483.334 0 .698.068 1.108.129 1.504.228 3.509.319 4.663-.41-.638 2.051-1.488 5.27-1.184 10.018 0 9.25 4.329 19.366 16.466 19.997.288.015.577.023.851.023 5.772 0 11.362-3.296 16.724-9.661.622 2.902 1.746 5.332 3.403 7.23 2.627 2.985 6.091 4.048 8.415 4.048l.167.008h.06c5.073 0 9.797-5.461 12.47-9.266 1.914 4.026 5.954 8.347 13.398 8.347v-.008l.03.008h.015c11.894-.198 21.463-15.456 25.033-22.002 2.781-5.042 2.583-8.832 1.565-10.548zm-147.126 2.271c-.881 5.422-6.638 21.083-11.529 21.098-.319 0-.744-.084-1.231-.707-1.503-1.898-2.233-7.397-.638-13.868 1.777-7.86 6.638-14.491 10.739-14.506 1.108.038 1.914.365 2.445 1.01 1.126 1.33.29 6.661.214 6.973zm106.54 0c-.896 5.422-6.638 21.067-11.529 21.098-.319 0-.744-.084-1.23-.707-1.504-1.898-2.233-7.397-.654-13.868 1.792-7.846 6.653-14.483 10.754-14.506 1.109.038 1.898.372 2.445 1.01 1.126 1.33.275 6.661.214 6.973zM875.055 79.525l-.561-.015c-7.671 0-13.701 7.504-17.97 14.605-1.594-4.344-4.253-8.871-8.415-8.871-.684 0-1.367.137-2.035.379-1.291.472-2.916 2.317-7.428 10.368l-.289.509c-.972 1.898-.942 4.032.091 5.726 1.352 2.195 3.752 3.221 5.802.752l1.762-3.213c.562-1.056 1.17-2.18 1.656-3.03.531 1.055 1.184 2.832 1.686 5.065.167.645.486 2.188.805 4.489-1.291 2.567-2.355 5.028-3.297 7.176l-.546 1.254c-5.483 11.999-16.496 43.412-18.06 61.031-.806 7.215.289 12.691 3.266 16.26 2.247 2.674 5.438 4.155 9.494 4.421.258.015.516.03.774.03 13.626 0 17.787-22.762 18.881-41.885.425-9.729.82-21.516.334-30.448 1.489.774 3.387 1.375 5.849 1.58 11.802.669 22.419-17.582 22.617-29.103.03-7.503-3.738-16.481-14.416-17.08zM850.6 153.969c-1.67 20.741-5.696 33.113-10.861 33.113-.121-.007-.273-.038-.501-.288-.972-1.116-1.823-4.868-1.261-12.03 1.534-18.638 8.992-39.577 12.926-48.562.32 7.64.441 17.688-.303 27.767zm26.293-47.476c-3.235 7.321-8.735 12.022-12.289 10.451-3.539-1.557-3.782-8.765-.562-16.101 3.251-7.322 8.749-12.022 12.304-10.458 3.539 1.556 3.783 8.764.547 16.108z"/><path fill="#FFF" d="M505.295 81.734c-1.716-2.286-4.056-3.645-6.987-4.024-8.947-1.018-15.144 6.645-18.866 13.997 1.276-14.233 4.01-33.272 9.615-56.11.198-.797.334-1.352.411-1.785.501-1.807-.03-4.002-1.443-5.87-1.519-1.983-3.63-3.167-5.681-3.167-1.275 0-3.645.486-5.27 3.721l-.182.661c-4.223 43.663-8.309 68.194-8.339 68.414-.03.129-.152.918-.304 1.952-6.561 10.275-12.273 15.554-17.027 15.554-2.126 0-3.6-.669-4.496-2.051-2.263-3.471-.714-10.701.212-13.626 0 0 .137-.66.274-1.656 1.808-9.895-1.322-14.923-4.481-17.43-.926-.843-2.065-1.481-3.402-1.921-.957-.373-1.64-.494-1.64-.494v.015a20.529 20.529 0 0 0-3.388-.402c-6.668 0-16.48 6.979-20.308 20.187-4.466 7.352-11.028 16.822-17.422 16.822-1.869 0-3.251-.463-4.178-1.42-2.065-2.111-2.247-6.645-2.126-10.854 0-4.26.744-5.795 1.458-7.275.562-1.154 1.139-2.347 1.352-4.701.167-1.511.684-6.107-2.673-7.982a8.99 8.99 0 0 0-4.36-1.139c-2.81 0-5.119 1.321-6.243 1.959l-.137.076c.349-.76.744-1.656.729-2.438.212-1.541-.684-4.139-2.02-5.78-1.063-1.313-2.385-2.058-3.722-2.149l-.471-.024c-4.678 0-6.82 7.177-6.82 13.854 0 1.23.046 2.02.077 2.574.015.282.03.471-.152.767-1.275 2.013-1.959 3.334-2.612 4.609a48.708 48.708 0 0 1-1.002 1.899 6.456 6.456 0 0 0 .167 6.258c1.366 2.217 3.979 2.635 5.331.638l2.066-3.402c1.474-2.415 2.537-4.162 3.069-5.483.319 0 .699.068 1.108.129 1.504.228 3.494.319 4.664-.41-.639 2.051-1.504 5.27-1.17 10.018 0 9.25 4.314 19.366 16.435 19.997.289.015.592.023.866.023 5.772 0 11.377-3.296 16.754-9.676.608 2.901 1.732 5.339 3.403 7.245 2.628 2.985 6.091 4.048 8.415 4.048l.182.008h.03c5.074 0 9.798-5.484 12.471-9.296 1.898 4.024 5.969 8.377 13.412 8.377 6.456-.107 12.167-4.656 16.663-9.828.213 2.279.592 4.428 1.321 6.137 1.625 3.927 3.858 4.747 5.438 4.747 1.124 0 2.385-.516 3.372-1.238 2.431 1.473 6.41 2.635 8.628 2.726l.273.007c6.076 0 18.516-7.07 21.174-24.076 1.577-9.924.742-17.435-2.448-21.712zm-80.308 42.281l-.015-.023h.015v.023zm11.939-29.323c-.881 5.43-6.638 21.105-11.544 21.105-.319 0-.759-.083-1.245-.714-1.504-1.898-2.233-7.397-.653-13.868 1.793-7.86 6.668-14.506 10.77-14.506 1.124.03 1.913.365 2.461 1.01 1.123 1.33.288 6.661.211 6.973zm48.607 23.103c-3.083 0-4.207-2.43-4.496-3.267 2.278-10.412 8.263-26.581 15.113-26.916l.258-.008c2.613 0 3.251 3.213 3.327 5.917.243 9.061-6.076 23.841-14.202 24.274zm333.989-25.45c-1.337-1.769-3.964-1.481-5.103.593l-1.914 3.182c-2.902 5.536-7.216 6.699-10.33 6.699-1.275 0-2.612-.198-3.949-.577.092-.638.153-1.261.137-1.838.881-10.663-2.202-16.45-4.937-19.419-2.248-2.438-5.104-3.836-7.838-3.836 0 0-14.308-.995-19.974 23.642-.03.129-.046.205-.061.334-.03.061-.061.16-.092.22-4.329 6.722-10.192 13.952-16.45 13.952-.228-.008-.456-.024-.638-.031-3.63-.411-6.456-3.44-8.384-8.993 3.25-5.514 5.757-11.339 7.306-15.319 12.744-32.962 16.831-53.665 12.137-61.548-1.276-2.134-3.221-3.425-5.651-3.736-13.305-1.656-21.752 30.653-24.516 53.513-.152-.015-.289 0-.44-.015a6.936 6.936 0 0 0-.714-.038c-5.453 0-18.547 6.759-22.648 22.382-4.268 6.661-10.025 13.602-16.633 13.602-.258 0-.516-.022-.774-.037-1.944-.153-3.342-.798-4.284-2.013-2.855-3.669-1.428-11.833-.379-17.795.896-5.165 1.397-8.013 0-9.479-3.904-4.511-9.889-4.093-11.848.615-.426.889-1.155 2.697-2.081 4.967-1.823 4.489-6.288 15.486-8.749 19.124-.015-1.367.228-3.532.426-5.118.531-4.443 1.185-9.965-.486-14.339-1.792-4.579-4.663-5.271-6.212-5.271-2.325 0-4.709 1.557-6.016 3.866-1.884 2.939-3.023 4.777-4.177 6.858-.046.084-.03.16-.061.244-7.26 12.09-13.534 18.295-18.698 18.334-2.096-.016-3.57-.676-4.451-2.043-2.263-3.471-.714-10.701.213-13.626 0 0 .137-.66.258-1.656 1.823-9.895-1.307-14.923-4.466-17.43-.122-.099-.304-.136-.41-.228a10.116 10.116 0 0 0-2.719-1.549c-.107-.038-.168-.114-.273-.144-.972-.373-1.641-.494-1.641-.494v.015c-.091-.015-.198-.015-.273-.031-.653-.136-1.367-.182-2.081-.25-.349-.03-.668-.106-1.048-.121-.015 0-.031.008-.045.008-.015 0-.03-.008-.046-.008-.212 0-.456.091-.684.099-.653.045-1.307.105-2.005.281-.592.151-1.2.395-1.823.631-.364.136-.698.243-1.063.41-.714.327-1.428.752-2.156 1.2-.258.16-.516.311-.79.494a26.054 26.054 0 0 0-2.294 1.785c-.183.174-.379.341-.562.523a27.764 27.764 0 0 0-2.354 2.438c-.106.129-.197.266-.304.395-3.584 4.336-6.501 10.268-7.503 17.871-1.063 8.119.152 14.248 3.615 18.197 2.628 2.985 6.091 4.048 8.415 4.048l.183.008h.107c5.057 0 9.752-5.415 12.44-9.228 1.898 4.002 5.954 8.308 13.366 8.308 0 0 .03-.008.046-.008.015 0 .03.008.045.008v-.015c11.833-.274 21.357-15.402 24.926-21.949l.03-.03a124.832 124.832 0 0 0 1.838-3.402c-.03.47-.075 1.01-.136 1.625l-.228 2.651c-.562 6-1.2 12.789 1.868 16.435 1.185 1.398 2.78 2.18 4.724 2.332l.486.015c6.927 0 11.104-9.447 13.747-16.397.091 7.079 1.595 17.803 15.403 18.19l.684.015c6.577 0 12.106-3.623 16.404-8.051.562 1.952 1.413 3.63 2.644 4.998 2.81 3.182 6.698 4.002 9.417 4.131.258.016.502.023.744.023 5.104 0 10.33-3.198 15.585-9.517 3.403 5.856 8.218 8.985 14.37 9.312l.821.022c6.713 0 12.455-4.306 16.951-9.387.684 2.293 1.656 4.526 3.221 6.349 2.188 2.521 4.998 3.904 8.384 4.109.35.023.699.03 1.049.03 7.883 0 14.293-5.369 17.772-14.81 1.58.258 3.129.395 4.633.395 10.404 0 17.301-6.531 19.518-13.093.77-2.683.588-5.151-.521-6.609zm-208.371 2.347c-.896 5.415-6.622 21.022-11.513 21.09-.319-.008-.714-.091-1.2-.699-1.489-1.898-2.233-7.397-.638-13.868 1.777-7.846 6.622-14.453 10.708-14.498 1.094.038 1.884.364 2.43 1.002 1.124 1.33.274 6.661.213 6.973zm106.601 21.478c-1.124-.046-1.595-.441-1.853-.729-.926-1.033-1.261-3.349-1.003-7.048.698-8.787 7.807-19.344 11.712-19.344h.091c.561.075 1.093.25 1.533.494-.121 5.369.289 10.617 1.216 15.273-5.894 9.842-9.767 11.354-11.696 11.354zm23.118-51.205c4.071-16.899 7.747-23.575 9.721-26.134-.243 5.659-2.202 18.881-4.42 26.286-1.003 3.654-4.253 13.466-8.567 23.551.228-7.314 1.352-15.584 3.266-23.703zm38.096 52.457h-.016c-2.066-.114-4.77-1.23-4.375-9.455.122-2.378 1.732-6.805 3.13-9.479a26.606 26.606 0 0 0 9.296 10.041c-1.686 4.579-4.846 8.893-8.035 8.893zm6.091-25.245c-.607-1.701-.607-3.744 0-4.671.197-.296.41-.418.82-.44l.076-.008c.167 0 .35.022.608.296.608.601 1.838 2.719 1.96 9.919-1.717-1.564-2.917-3.311-3.464-5.096zm265.119 144.347l-1.565.972c-2.308 1.42-4.496 2.074-6.85 1.868-1.96-.145-3.357-.797-4.298-2.005-2.856-3.683-1.428-11.863-.38-17.841.911-5.18 1.397-8.035 0-9.508-3.919-4.519-9.919-4.109-11.894.623-.426.888-1.154 2.696-2.081 4.967-1.823 4.504-6.304 15.493-8.749 19.162-.031-1.375.227-3.516.41-5.096.531-4.458 1.184-10.01-.486-14.377-1.792-4.61-4.679-5.301-6.228-5.301-2.339 0-4.74 1.557-6.061 3.873-1.883 2.954-3.007 4.792-4.177 6.888-.076.152-.107.32-.182.471-7.23 11.985-8.795 18.114-13.93 18.136v-.015a6.377 6.377 0 0 1-2.399-.456c-.197-.069-.38-.183-.562-.274-.592-.327-1.139-.722-1.519-1.314-.046-.068-.076-.183-.122-.258-2.065-3.547-.608-10.511.304-13.375 0 0 .121-.66.258-1.655 1.823-9.896-1.321-14.924-4.481-17.431-.03-.022-.075-.037-.105-.068-.988-.836-2.157-1.482-3.525-1.937a10.6 10.6 0 0 0-1.245-.372 17.667 17.667 0 0 0-3.6-.478c-7.625 0-19.366 9.098-21.615 26.186a44.43 44.43 0 0 0-.334 5.15c-3.6 3.661-7.336 5.271-11.285 4.853-4.056-.456-4.663-6.083-4.663-9.289.136-2.468.227-4.587.303-6.394.107-2.894.198-4.982.38-5.977.137-.547.334-1.048.502-1.511.471-1.306 1.018-2.787.258-4.253-.744-1.443-2.4-2.021-3.63-2.346a5.988 5.988 0 0 0-1.489-.191c-1.565 0-4.344.677-5.438 5.187-.38 1.466-.699 2.894-1.033 4.322-.32 1.39-.653 2.78-1.018 4.223-1.443 5.627-6.456 14.969-9.312 14.969-.622-.084-1.078-.38-1.458-.965-2.324-3.584-.349-14.194 1.534-20.437.198-.638.41-1.252.623-1.83.759-2.134 1.489-4.146.562-5.909-.531-1.01-1.489-1.717-2.794-2.066-3.934-1.223-6.835.585-7.398 3.972l-.304.95c-.85 2.65-2.855 8.878-3.858 15.501-.182 1.23-.212 2.506-.182 3.774-4.602 6.061-8.733 9.175-12.303 9.175-1.883 0-3.265-.471-4.193-1.436-2.051-2.104-2.233-6.653-2.126-10.868 0-4.276.744-5.81 1.458-7.299.562-1.147 1.154-2.339 1.352-4.709.182-1.511.699-6.121-2.673-8.005a8.981 8.981 0 0 0-4.39-1.146c-2.81 0-5.119 1.321-6.228 1.951l-.137.076c.35-.752.729-1.64.714-2.408.228-1.549-.684-4.155-2.02-5.81-1.063-1.322-2.385-2.073-4.207-2.188-4.694 0-6.836 7.208-6.836 13.898 0 1.246.03 2.043.076 2.582 0 .289.03.471-.152.775-1.291 2.005-1.975 3.341-2.628 4.625-.212.387-.44.813-.654 1.23-4.617 7.731-12.045 19.45-22.724 19.45-1.944 0-3.706-.464-5.012-1.094 2.84-3.433 7.124-9.038 9.751-15.592l.562-1.413c2.536-6.228 6.38-15.645-2.081-21.083-1.61-.964-3.281-1.458-4.982-1.458-10.04 0-17.103 17.012-17.453 25.905-.334 8.711 1.443 15.023 5.469 19.283 3.463 3.691 8.521 5.628 15.038 5.764h.212c13.321 0 22.754-15.181 26.415-22.222l2.065-3.41c1.474-2.407 2.521-4.139 3.053-5.453.319 0 .698.069 1.109.129 1.503.228 3.493.311 4.678-.403-.653 2.051-1.503 5.278-1.185 10.026 0 9.28 4.329 19.419 16.496 20.058.289.015.577.022.85.022 5.271 0 10.572-2.817 15.57-8.202.349.601.653 1.276 1.063 1.801 2.021 2.574 4.648 4.093 7.64 4.375 6.79.547 11.347-5.332 13.777-9.775 2.142 4.899 6.593 10.147 14.461 10.147h.274c3.706-.068 7.473-1.617 11.255-4.557.623 1.405 1.367 2.681 2.309 3.766 2.643 2.993 6.106 4.064 8.445 4.064h.197c1.914 0 3.767-.767 5.499-1.944 2.87-1.914 5.347-4.937 7.033-7.329 1.928 4.025 5.999 8.362 13.443 8.362 11.924-.198 16.815-15.494 20.399-22.055.699-1.261 1.307-2.408 1.838-3.387a44 44 0 0 1-.136 1.595l-.228 2.635c-.577 6.023-1.216 12.85 1.868 16.504 1.185 1.405 2.779 2.195 5.226 2.354 6.941 0 11.133-9.448 13.777-16.42.105 7.101 1.625 17.832 15.448 18.227l.698.016c3.813 0 7.595-1.246 11.256-3.691l1.534-1.034-4.844-7.522zm-226.583-17.233l-.699 1.861c-.956 2.688-1.823 5.089-4.542 8.62 0-8.985 5.256-19.762 7.367-20.802l-.016.083c.517.966.274 4.224-2.11 10.238zm144.651-7.989c.349.16.638.373.896.654.137.167.212.379.304.569.44 1.185.319 3.334.151 4.838l-.258 1.572c-.821 5.082-5.909 19.132-10.587 20.954a2.853 2.853 0 0 1-.897.174c-.319 0-.744-.083-1.23-.714-1.489-1.899-2.233-7.397-.638-13.861 1.793-7.86 6.638-14.498 10.74-14.514.562.023 1.033.107 1.443.274.03.016.045.046.076.054zm-139.35 36.652v.015-.015zm105.993-2.901v.008-.008zM570.063 219.39c-.562-.926-1.443-1.458-2.415-1.458-.638 0-1.838.236-2.765 1.853l-1.017 1.77c-4.42 7.678-12.623 21.979-24.319 21.979-1.747 0-3.403-.281-4.906-.858 4.647-1.96 8.992-7.093 9.736-14.43.121-2.469-1.307-6.904-2.826-11.59-1.124-3.501-2.308-7.109-2.385-8.734-.016-.372-.016-.805-.016-1.283-.045-3.122-.106-10.427-7.412-10.633-5.651 0-6.486 6-6.866 8.826-.258 1.511-.577 2.749-.881 4.048-1.063 3.152-5.908 16.146-16.192 25.055-.365.281-.653.539-1.002.797-.38.015-.744.046-1.003.046-.167 0 1.807-4.292 1.443-4.193 1.428-3.304 2.233-6.926 2.233-10.359 0-5.415-1.838-10.056-5.347-13.436-4.01-3.873-9.903-5.841-17.483-5.841-9.767 0-19.519 4.443-26.08 11.893-.016.008-.016.023-.03.031l.015-.031c-1.245 1.413-2.293 2.932-3.22 4.473-.274.456-.517.919-.775 1.383a33.212 33.212 0 0 0-1.503 3.379c-.213.593-.471 1.163-.653 1.762-.41 1.428-.744 2.886-.926 4.36-4.116 5.885-9.327 11.422-14.795 11.422-.243 0-.47 0-.653-.015-3.6-.418-6.425-3.433-8.369-8.993 3.266-5.522 5.771-11.331 7.321-15.318 12.729-32.962 16.815-53.673 12.121-61.556-1.276-2.126-3.22-3.425-5.651-3.729-13.063-1.602-21.736 30.63-24.516 53.498a4.165 4.165 0 0 0-.441-.008c-4.845-.516-17.877 5.628-22.708 20.528a10.954 10.954 0 0 1-3.737 2.385c-.137.045-.289.114-.44.159-.486.16-.942.281-1.413.364-.652.107-1.321.205-1.929.205-1.261 0-2.612-.197-3.949-.577.075-.638.137-1.261.137-1.838.88-10.663-2.218-16.451-4.952-19.42-2.248-2.438-5.119-3.836-7.853-3.836 0 0-1.003-.053-2.552.282-.212.045-.425.121-.638.159-.212.061-.426.137-.653.198-3.144.904-6.957 3.205-10.435 8.59-.198.303-.394.63-.592.949-.456.798-.927 1.595-1.383 2.514-.562 1.14-1.093 2.415-1.61 3.767a33.403 33.403 0 0 0-.698 2.013 53.827 53.827 0 0 0-1.034 3.57c-.243.835-.501 1.534-.698 2.438-3.828 5.954-8.795 11.674-15.296 11.674-.288 0-.592 0-.911-.038-1.154-.077-2.141-.615-3.037-1.648-2.993-3.463-3.919-11.666-3.6-16.116.258-3.35 2.035-12.243 3.205-18.129.593-2.893 1.063-5.271 1.246-6.41l.653-4.724c.228-1.618.441-3.129.638-4.549h26.976c3.555 0 7.777-1.268 8.005-4.952 0-1.997-1.367-4.131-5.194-4.131-.653 0-1.17.069-1.215.083l-27.22.167.334-3.342c.258-2.217-1.048-7.055-3.904-7.989-4.678-1.444-5.696 2.035-6.486 5.347l-.152.698c-.228.988-.623 2.78-1.063 5.134l-26.855.174c-.137-.015-.35-.037-.608-.083-.684-.083-1.58-.198-2.475-.198-4.754 0-5.423 3.083-5.499 4.504 0 3.205 3.888 4.473 7.26 4.588h26.598c-2.264 13.358-4.497 27.166-4.663 32.339-.32 7.655.455 18.03 5.984 24.022 2.658 2.871 6.121 4.421 10.298 4.58.349.015.684.023 1.033.023 4.451 0 10.177-1.497 15.873-6.979.669 2.407 1.702 4.762 3.327 6.668 2.187 2.514 5.012 3.896 8.369 4.101.365.023.73.031 1.064.031.031 0 .061-.007.091-.007h.015c7.899 0 14.324-5.37 17.803-14.78 1.534.235 3.053.372 4.496.372.076 0 .137-.008.197-.008 2.688-.015 5.119-.456 7.306-1.207-.015 4.443 1.048 8.042 3.281 10.564 2.826 3.182 6.714 4.002 9.433 4.131.258.016.502.023.744.023 5.088 0 10.344-3.205 15.6-9.524 3.402 5.795 8.308 8.993 14.354 9.319l.835.023c6.593 0 12.273-4.177 16.754-9.152v-.045c3.6 9.266 12.623 14.688 25.291 14.688 7.382 0 18.394-2.393 25.762-8.355.075-.053.166-.091.243-.151 2.081-1.602 6.212-4.519 10.542-8.62 3.873 9.098 10.587 13.898 20.415 14.453.531.038 1.047.053 1.549.053 7.944 0 19.519-3.79 29.604-21.819l.365-.645c2.186-4.27 2.717-8.477 1.35-10.718zm-205.12 22.367c-2.065-.144-4.738-1.268-4.359-9.471.121-2.346 1.701-6.691 3.114-9.379a26.383 26.383 0 0 0 9.235 9.949c-1.671 4.557-4.816 8.832-7.99 8.901zm6.167-25.26c-.623-1.686-.623-3.737 0-4.663.183-.289.41-.403.79-.433.152 0 .334.022.592.288.578.585 1.792 2.696 1.944 9.752-1.625-1.527-2.81-3.205-3.326-4.944zm36.303 23.999c-1.124-.045-1.595-.44-1.853-.729-.926-1.026-1.261-3.342-1.018-7.04.729-8.78 7.808-19.344 11.727-19.344h.091a4.498 4.498 0 0 1 1.534.501c-.121 5.37.289 10.618 1.215 15.266-5.893 9.858-9.767 11.346-11.696 11.346zm23.104-51.196c4.07-16.906 7.762-23.574 9.736-26.126-.243 5.651-2.187 18.881-4.435 26.278-1.003 3.654-4.238 13.451-8.552 23.567.228-7.33 1.351-15.601 3.251-23.719zm62.945 45.067c-.243-.235-.379-.782-.501-1.45-.152-1.283-.046-3.023.243-4.405.061-.22.092-.486.152-.676.03-.061 0-.129 0-.19.44-1.891.379-4.755-.441-7.139a6.464 6.464 0 0 0-.881-1.982c-.82-1.215-2.445-2.749-5.65-3.182l-.805-.045h-.016l-.015.008c-1.003 0-2.172.25-3.433.751-.289.114-.562.281-.866.425a14.875 14.875 0 0 0-2.931 1.937c-.228.198-.426.419-.639.646a16.06 16.06 0 0 0-2.734 3.433c-.121.204-.213.448-.334.66a20.114 20.114 0 0 0-1.823 4.701c-.03.152-.121.25-.151.41-1.018 4.375-.623 7.861 1.169 10.352 1.245 1.755 3.205 2.916 5.195 3.122l.744.037h.045c2.4 0 4.481-1.275 6.152-2.863a8.55 8.55 0 0 0 1.018 1.398c1.306 1.465 2.993 2.293 5.468 2.407.016 0 .03-.015.03-.015l.016.015c1.731 0 3.387-.394 4.952-1.108-4.998 3.402-11.331 5.004-16.754 5.004-7.337 0-16.329-3.258-17.529-12.425-.76-5.871 1.17-11.788 5.438-16.64 4.648-5.301 11.468-8.461 18.228-8.461 5.103 0 8.855 1.125 11.179 3.364 1.853 1.785 2.794 4.269 2.794 7.406 0 5.202-2.506 10.108-4.754 12.668v-.038c-.971 1.116-1.897 1.837-2.566 1.875zm-7.701-8.62c-.516 2.279-3.402 8.787-5.483 8.688-.137-.015-.319-.061-.501-.341-.593-.859-.76-3.213.091-5.932.987-3.311 3.22-6.008 4.982-5.909.471.053.805.213 1.018.509.44.593-.077 2.848-.107 2.985zm41.134 9.987h-.198c-1.185-1.967-1.974-3.782-2.537-5.817-.03-.076-.076-.19-.107-.281 2.035-2.909 3.798-6.144 5.104-9.766.592-1.444 1.139-2.947 1.565-4.519 1.503 2.423 2.855 5.62 2.855 11.726.001 5.756-1.974 8.262-6.682 8.657zm213.55-16.344c-.547-.926-1.443-1.458-2.399-1.458-.638 0-1.839.236-2.78 1.853l-1.017 1.77c-4.421 7.678-12.623 21.979-24.319 21.979-1.747 0-3.403-.281-4.906-.858 4.663-1.96 8.992-7.093 9.752-14.43.106-2.469-1.322-6.904-2.841-11.59-1.124-3.501-2.293-7.109-2.37-8.734-.015-.372-.015-.805-.03-1.283-.03-3.122-.106-10.427-7.412-10.633-5.635 0-6.471 6-6.866 8.826-.243 1.511-.562 2.749-.881 4.048-1.063 3.152-5.908 16.146-16.192 25.055-.365.281-.653.539-.987.797-.394.015-.759.046-1.017.046-.167 0 1.807-4.292 1.443-4.193 1.428-3.304 2.248-6.926 2.248-10.359 0-5.415-1.853-10.056-5.362-13.436-4.01-3.873-9.889-5.841-17.468-5.841-9.782 0-19.518 4.443-26.095 11.893l-.016.023v-.023c-.289.334-.486.707-.759 1.056a31.479 31.479 0 0 0-2.264 3.152c-.061.091-.136.174-.197.265-.274.456-.517.919-.76 1.383-.197.365-.319.729-.486 1.086a35.6 35.6 0 0 0-.79 1.747c-.061.183-.167.357-.243.547-.213.593-.472 1.163-.638 1.762-.426 1.428-.76 2.886-.942 4.36l.015.136c-4.587 6.373-10.784 12.516-18.38 12.516-5.134 0-8.749-3.136-11.012-6.174 7.079-8.727 20.156-31.807 23.453-54.425 2.006-12.713.911-22.109-3.159-27.144-2.066-2.59-4.846-4.003-8.233-4.207l-.654-.03c-16.208 0-26.445 37.837-26.612 54.477-.167 18.107-.425 45.47 24.091 46.693.41.023.835.031 1.276.031 8.764 0 15.585-4.542 20.627-9.798l.016-.099.045.372v-.045c3.6 9.266 12.623 14.688 25.306 14.688 7.367 0 18.38-2.393 25.747-8.355.091-.053.167-.091.243-.151 2.081-1.602 6.212-4.519 10.556-8.62 3.874 9.098 10.572 13.898 20.4 14.453.531.038 1.048.053 1.549.053 7.944 0 19.534-3.79 29.62-21.819l.365-.645c2.171-4.269 2.717-8.476 1.335-10.717zm-151.866-15.478c2.43-24.6 12.258-44.574 17.392-44.574l.153.015c.333.008.728.114 1.184.729 2.78 3.873 1.291 18.189-.091 23.233-6.091 23.407-8.993 31.093-16.845 42.629-1.58-6.683-2.233-16.184-1.793-22.032zm75.265 30.455c-.243-.235-.379-.782-.486-1.45-.152-1.283-.045-3.023.243-4.405.045-.22.076-.486.152-.676.015-.061-.015-.129 0-.19.441-1.891.365-4.755-.44-7.139a6.937 6.937 0 0 0-.897-1.982c-.82-1.215-2.445-2.749-5.65-3.182l-.79-.045h-.03l-.015.008c-.987 0-2.172.25-3.418.751-.304.114-.577.281-.866.425a14.08 14.08 0 0 0-2.932 1.937 9.25 9.25 0 0 0-.654.646 16.06 16.06 0 0 0-2.734 3.433c-.107.204-.197.448-.319.66-.744 1.367-1.367 2.909-1.839 4.701-.03.152-.106.25-.151.41-1.003 4.375-.608 7.861 1.169 10.352 1.261 1.755 3.205 2.916 5.195 3.122l.745.037h.045c2.4 0 4.481-1.275 6.152-2.863.29.494.639.957 1.018 1.398 1.321 1.465 2.993 2.293 5.484 2.407l.03-.015v.015c1.731 0 3.387-.394 4.952-1.108-4.982 3.402-11.316 5.004-16.739 5.004-7.352 0-16.344-3.258-17.544-12.425-.76-5.871 1.169-11.788 5.438-16.64 4.648-5.301 11.468-8.461 18.243-8.461 5.088 0 8.856 1.125 11.165 3.364 1.868 1.785 2.794 4.269 2.794 7.406 0 5.202-2.491 10.108-4.738 12.668v-.038c-.973 1.116-1.915 1.837-2.583 1.875zm-7.686-8.62c-.532 2.279-3.402 8.787-5.483 8.688-.153-.015-.319-.061-.516-.341-.592-.859-.76-3.213.091-5.932.987-3.311 3.235-6.008 4.982-5.909.471.053.805.213 1.003.509.44.593-.046 2.848-.077 2.985zm41.133 9.987h-.198c-1.184-1.967-1.989-3.782-2.551-5.817-.03-.076-.076-.19-.106-.281 2.036-2.909 3.813-6.144 5.104-9.766.593-1.444 1.154-2.947 1.565-4.519 1.503 2.423 2.87 5.62 2.87 11.726 0 5.756-1.975 8.262-6.684 8.657z"/><path fill="#FFF" d="M1048.611 238.18l.015.106.016-.045c3.599 9.288 12.638 14.718 25.366 14.718 7.397 0 18.425-2.392 25.822-8.369.076-.054.167-.091.243-.152 2.081-1.61 6.228-4.526 10.572-8.65 3.888 9.137 10.617 13.944 20.475 14.507.517.022 1.033.045 1.55.045 7.96 0 19.579-3.805 29.68-21.88l.365-.653c2.203-4.269 2.735-8.491 1.367-10.74-.562-.926-1.458-1.466-2.43-1.466-.638 0-1.838.243-2.78 1.861l-1.018 1.777c-4.42 7.701-12.653 22.04-24.394 22.04-1.732 0-3.387-.288-4.907-.865 4.664-1.96 9.023-7.101 9.767-14.461.121-2.476-1.321-6.926-2.84-11.628-1.125-3.509-2.309-7.124-2.37-8.757-.03-.372-.03-.813-.046-1.291-.031-3.129-.091-10.451-7.428-10.655-5.65 0-6.485 6.007-6.88 8.848-.243 1.519-.577 2.757-.881 4.063-1.063 3.152-5.924 16.185-16.238 25.116-.365.281-.654.54-1.003.805-.395.008-.744.046-1.003.046-.167 0 1.807-4.298 1.443-4.207 1.428-3.312 2.248-6.95 2.248-10.383 0-5.43-1.853-10.093-5.377-13.481-4.01-3.881-9.919-5.847-17.514-5.847-9.797 0-19.579 4.45-26.172 11.916 0 .015 0 .022-.015.038l.015-.038c-1.261 1.428-2.293 2.939-3.235 4.496-.289.456-.516.919-.76 1.39a29.202 29.202 0 0 0-1.519 3.388c-.228.585-.486 1.154-.653 1.762-.425 1.428-.759 2.886-.942 4.368l.031.19c.003-.003-.803 5.313 1.43 12.088zm38.643-6.091c-.228-.228-.38-.79-.486-1.458-.167-1.292-.046-3.031.243-4.421.061-.22.076-.486.152-.676.015-.061-.016-.129 0-.183.44-1.906.365-4.777-.441-7.162a6.849 6.849 0 0 0-.896-1.982c-.821-1.223-2.445-2.772-5.666-3.205l-.79-.046h-.031c-.015 0-.015.008-.03.008-.987 0-2.156.251-3.417.759-.304.114-.578.274-.866.425a14.572 14.572 0 0 0-2.947 1.936c-.228.213-.425.433-.653.645a16.897 16.897 0 0 0-2.734 3.449c-.121.212-.213.448-.334.668a20.719 20.719 0 0 0-1.823 4.709c-.045.152-.121.25-.166.417-1.003 4.382-.608 7.876 1.184 10.375 1.246 1.762 3.221 2.924 5.21 3.129l.744.037h.031c2.415 0 4.511-1.276 6.182-2.863.29.493.623.956 1.018 1.39 1.322 1.473 3.008 2.309 5.499 2.415l.03-.015v.015c1.748 0 3.403-.395 4.968-1.109-4.998 3.418-11.362 5.021-16.785 5.021-7.382 0-16.389-3.266-17.589-12.464-.76-5.886 1.17-11.817 5.453-16.686 4.663-5.316 11.498-8.483 18.288-8.483 5.104 0 8.871 1.132 11.195 3.372 1.868 1.793 2.795 4.284 2.795 7.428 0 5.224-2.492 10.139-4.739 12.706v-.038c-.989 1.127-1.931 1.841-2.599 1.887zm-7.717-8.65c-.516 2.286-3.417 8.817-5.498 8.711-.137-.015-.319-.061-.502-.326-.592-.874-.759-3.228.091-5.962.988-3.319 3.236-6.023 4.997-5.917.456.046.805.205 1.018.502.441.599-.075 2.855-.106 2.992zm41.255 10.017h-.197c-1.184-1.974-1.99-3.79-2.552-5.833-.031-.083-.076-.19-.107-.281 2.035-2.924 3.813-6.159 5.119-9.79.593-1.451 1.139-2.962 1.565-4.534 1.519 2.43 2.87 5.635 2.87 11.757.001 5.772-1.974 8.286-6.698 8.681zm-330.707-29.863l-.578-.023c-7.701 0-13.731 7.534-18.03 14.658-1.595-4.352-4.253-8.893-8.43-8.893a6.1 6.1 0 0 0-2.051.372c-1.291.478-2.931 2.325-7.443 10.397l-.289.516c-.972 1.907-.957 4.049.091 5.749 1.337 2.195 3.767 3.227 5.818.752l1.762-3.235c.577-1.048 1.185-2.172 1.671-3.038.531 1.064 1.185 2.849 1.686 5.088.166.654.486 2.196.805 4.504-1.291 2.583-2.37 5.051-3.311 7.208l-.547 1.238c-5.499 12.045-16.557 43.571-18.121 61.244-.805 7.245.288 12.736 3.281 16.313 2.247 2.681 5.452 4.177 9.524 4.443.258.008.531.023.789.023 13.656 0 17.833-22.838 18.926-42.023.425-9.759.821-21.591.334-30.554 1.504.782 3.418 1.383 5.863 1.587 11.863.676 22.511-17.635 22.708-29.186.017-7.54-3.765-16.547-14.458-17.14zm-24.547 74.687c-1.671 20.802-5.712 33.22-10.891 33.22-.121-.008-.273-.038-.501-.289-.988-1.117-1.839-4.883-1.261-12.068 1.519-18.698 9.007-39.721 12.956-48.72.335 7.656.457 17.741-.303 27.857zm26.384-47.634c-3.251 7.352-8.765 12.061-12.333 10.488-3.555-1.564-3.798-8.802-.562-16.154 3.266-7.352 8.779-12.068 12.333-10.488 3.555 1.549 3.798 8.794.562 16.154z"/></svg>