<?xml version="1.0" encoding="utf-8"?>
<!-- Generator: Adobe Illustrator 22.0.1, SVG Export Plug-In . SVG Version: 6.00 Build 0)  -->
<svg version="1.1" id="Layer_1" xmlns="http://www.w3.org/2000/svg" xmlns:xlink="http://www.w3.org/1999/xlink" x="0px" y="0px"
	 viewBox="0 0 1190.551 339.759" enable-background="new 0 0 1190.551 339.759" xml:space="preserve">
<g display="none">
	<defs>
		<rect id="SVGID_1_" x="35.639" y="22.614" width="226.049" height="226.027"/>
	</defs>
	<clipPath id="SVGID_2_" display="inline">
		<use xlink:href="#SVGID_1_"  overflow="visible"/>
	</clipPath>
	<g display="inline" clip-path="url(#SVGID_2_)">
		<defs>
			<rect id="SVGID_3_" x="-294.898" y="-107.049" width="769.776" height="513.052"/>
		</defs>
		<clipPath id="SVGID_4_">
			<use xlink:href="#SVGID_3_"  overflow="visible"/>
		</clipPath>
		<g id="_x5F_WHW9790.tif_1_" clip-path="url(#SVGID_4_)">
			<defs>
				<rect id="SVGID_5_" x="-546.769" y="-324.517" width="1112.084" height="741.269"/>
			</defs>
			<clipPath id="SVGID_6_">
				<use xlink:href="#SVGID_5_"  overflow="visible"/>
			</clipPath>
			<g clip-path="url(#SVGID_6_)">
				
					<image overflow="visible" width="6142" height="4094" id="_x5F_WHW9790_2_" xlink:href="D0968A8A.jpg"  transform="matrix(0.1811 0 0 0.1811 -546.7688 -324.5165)">
				</image>
			</g>
		</g>
	</g>
</g>
<image overflow="visible" width="2362" height="2235" xlink:href="F:\AGRORURAL\MARCA GESTION\5-GALERÃA DE FOTOS\V100D4.jpg"  transform="matrix(0.1008 0 0 0.1008 23.4873 22.9632)">
</image>
<rect x="22.487" y="22.614" fill="#E20613" width="13.152" height="226.027"/>
<g>
	<g>
		<path fill="#FFFFFF" d="M335.855,36.295l-0.015,0.16c-1.306,10.921-3.722,31.26-4.922,45.819
			c-1.61,19.283-2.308,47.847-1.23,51.819c1.185,4.161,6.106,6.098,9.069,6.098c1.655,0,2.536-0.584,2.992-1.07
			c0.517-0.562,0.775-1.292,0.714-2.066l-0.137-1.071c-2.369-19.07-1.033-43.594,0.502-60.819
			c1.898-21.478,3.479-34.245,4.253-39.797c17.058-1.519,38.444-2.058,52.601-1.291c1.975,0,2.856-1.063,3.19-1.701
			c1.185-2.165-0.47-5.431-1.504-7.117c-0.228-1.58-2.491-1.67-25.381-2.552c-20.035-0.813-57.174,3.896-72.333,5.802
			c-2.856,0.357-4.937,0.615-6.015,0.736c-6.683,0.722-23.376,2.157-23.376,2.157c-2.856,0.228-3.934,1.967-3.965,3.508
			c-0.075,2.567,2.78,5.673,5.56,6.023c8.825,1.116,26.43-0.806,45.417-3C326.012,37.389,330.903,36.826,335.855,36.295z"/>
		<path fill="#FFFFFF" d="M577.719,83.77c0.258,0.053,0.562,0.075,0.881,0.075c3.129,0,7.595-2.59,7.823-7.541
			c0-4.641-2.309-7.648-6.153-8.02l-0.561-0.031c-4.952,0-7.625,6.099-7.61,8.408C571.779,79.729,573.42,83.117,577.719,83.77z"/>
		<path fill="#FFFFFF" d="M584.57,129.848l-0.774-0.251c-1.458-0.152-3.114-0.091-4.998,0.175
			c-0.016-9.516-0.198-17.339-0.198-17.339c0.016-0.137,0.243-11.347,3.934-19.762c0.501-1.117,0.41-2.286-0.243-3.304
			c-1.291-2.005-4.42-2.734-6.198-2.734c-2.491,0-3.281,1.216-3.508,1.861c-0.319,0.805-2.066,3.235-2.704,4.322
			c-8.263,14.764-15.341,22.26-21.038,22.26c-2.142,0-3.6-0.669-4.496-2.051c-0.212-0.304-0.365-0.813-0.516-1.314
			c-0.076-0.228-0.167-0.456-0.228-0.706c-0.167-0.653-0.288-1.404-0.395-2.194c-0.197-3.449,0.639-7.412,1.276-9.411
			c0,0,0.121-0.66,0.258-1.656c1.807-9.82-1.261-14.84-4.405-17.362c-0.957-0.835-2.065-1.489-3.372-1.944
			c-0.046-0.015-0.061-0.045-0.091-0.045c-0.972-0.373-1.641-0.494-1.641-0.494v0.015c0,0,0,0-0.015,0
			c-1.018-0.212-2.111-0.357-3.311-0.402l-0.03,0.008c-0.015,0-0.03-0.008-0.046-0.008c-0.911,0-1.884,0.16-2.901,0.417
			c-0.076,0.023-0.152,0.069-0.244,0.084c-0.956,0.266-1.929,0.645-2.916,1.139c-0.121,0.061-0.242,0.137-0.364,0.205
			c-0.972,0.501-1.944,1.109-2.902,1.823c-0.107,0.091-0.243,0.19-0.365,0.28c-0.972,0.752-1.929,1.61-2.856,2.582
			c-0.091,0.091-0.182,0.183-0.273,0.274c-0.987,1.055-1.93,2.217-2.81,3.509c-0.015,0.031-0.046,0.053-0.046,0.091
			c-1.884,2.749-3.524,5.977-4.617,9.782l-0.031,0.516c-0.471,1.724-0.881,3.501-1.139,5.423c-0.532,4.109-0.486,7.701,0.136,10.769
			v0.183c0.608,2.901,1.716,5.339,3.388,7.245c2.628,2.985,6.091,4.048,8.415,4.048l0.183,0.008h0.031h0.015h0.03h0.03
			c5.058,0,9.767-5.431,12.44-9.235c1.914,4.002,5.955,8.316,13.382,8.316v-0.015c0.03,0,0.046,0.015,0.076,0.015l0,0
			c8.263-0.137,15.372-7.542,20.157-14.24c-0.304,5.749-0.334,11.666-0.304,17.544l0.015,4.215
			c-15.766,5.803-39.857,20.772-41.073,38.217c-0.289,4.966,1.276,9.425,4.511,12.896c3.691,3.964,9.205,6.205,15.539,6.296h0.03
			c7.063,0,24.136-2.856,29.908-29.438c0.759-3.866,1.23-10.899,1.488-22.078c3.098-0.638,5.605-0.774,7.443-0.395l0.805,0.175
			l0.684-0.494c0.897-0.653,1.367-1.58,1.321-2.628C588.898,132.665,585.875,130.615,584.57,129.848z M534.459,94.692
			c-0.881,5.422-6.607,21.037-11.513,21.09c-0.32-0.008-0.729-0.091-1.2-0.699c-1.489-1.898-2.234-7.397-0.638-13.868
			c1.777-7.846,6.623-14.453,10.724-14.498c1.094,0.038,1.884,0.364,2.416,1.002C535.37,89.049,534.535,94.38,534.459,94.692z
			 M567.451,154.941c-1.549,10.945-8.612,27.121-18.866,27.114c-0.349,0-0.683-0.015-1.003-0.046
			c-11.24-1.246-10.8-7.876-10.617-10.77c0.319-9.858,16.025-22.693,31.381-29.376C568.301,145.865,568.104,150.536,567.451,154.941
			z"/>
		<g>
			<path fill="#FFFFFF" d="M1061.674,92.421c-0.547-0.95-1.443-1.496-2.415-1.496c-0.638,0-1.853,0.243-2.795,1.891
				c-8.263,14.764-15.341,22.26-21.053,22.26c-2.127,0-3.6-0.669-4.496-2.051c-0.091-0.152-0.167-0.456-0.258-0.661
				c-0.228-0.486-0.395-1.033-0.517-1.618c-0.136-0.516-0.227-1.101-0.319-1.716c-0.258-3.494,0.623-7.594,1.276-9.631
				c0,0,0.121-0.66,0.258-1.656c1.823-9.895-1.307-14.923-4.481-17.43c-0.015-0.022-0.061-0.03-0.091-0.053
				c-0.896-0.76-1.959-1.367-3.175-1.807c-0.046-0.016-0.076-0.054-0.121-0.061c-0.972-0.373-1.641-0.494-1.641-0.494v0.015
				c-0.015-0.007-0.045,0-0.061-0.007c-1.017-0.213-2.096-0.35-3.296-0.395h-0.016h-0.03c-6.653,0-16.465,6.979-20.293,20.187
				l-0.016,0.068c-4.466,7.352-11.012,16.754-17.377,16.754c-1.883,0-3.25-0.463-4.192-1.42c-2.035-2.111-2.218-6.645-2.127-10.854
				c0-4.26,0.76-5.795,1.474-7.275c0.562-1.154,1.139-2.347,1.352-4.701c0.167-1.511,0.684-6.107-2.673-7.982
				c-1.367-0.751-2.841-1.139-4.36-1.139c-2.81,0-5.134,1.321-6.228,1.959l-0.136,0.076c0.334-0.76,0.729-1.656,0.714-2.438
				c0.212-1.541-0.684-4.139-2.02-5.78c-1.063-1.313-2.385-2.058-3.722-2.149l-0.471-0.024c-4.678,0-6.805,7.177-6.805,13.854
				c0,1.245,0.03,2.043,0.06,2.574c0.016,0.296,0.046,0.479-0.136,0.767c-1.291,2.013-1.974,3.357-2.628,4.633
				c-7.807,13.519-14.537,20.453-19.989,20.453c-2.127,0-3.585-0.669-4.497-2.051c-0.045-0.061-0.061-0.175-0.106-0.244
				c-2.081-3.554-0.608-10.518,0.289-13.382c0,0,0.137-0.66,0.273-1.656c1.823-9.895-1.321-14.923-4.481-17.43
				c-0.03-0.03-0.076-0.03-0.107-0.068c-0.896-0.751-1.944-1.344-3.16-1.785c-0.045-0.023-0.075-0.061-0.121-0.068
				c-0.972-0.373-1.64-0.494-1.64-0.494v0.015c-0.03-0.007-0.061-0.007-0.091-0.007c-1.002-0.213-2.097-0.35-3.281-0.395h-0.016
				h-0.015c-0.911,0-1.869,0.152-2.856,0.402c-0.228,0.061-0.471,0.167-0.699,0.243c-0.789,0.243-1.58,0.547-2.399,0.934
				c-0.289,0.144-0.578,0.319-0.851,0.478c-0.79,0.426-1.549,0.897-2.325,1.458c-0.304,0.22-0.592,0.456-0.881,0.691
				c-0.774,0.608-1.519,1.283-2.248,2.02c-0.274,0.281-0.562,0.562-0.835,0.866c-0.744,0.82-1.443,1.716-2.142,2.673
				c-0.228,0.312-0.44,0.601-0.668,0.927c-0.744,1.124-1.444,2.346-2.081,3.653c-0.106,0.228-0.228,0.41-0.334,0.638
				c-0.759,1.618-1.443,3.327-1.99,5.203l-0.015,0.22c-0.502,1.8-0.926,3.691-1.185,5.719c-0.547,4.161-0.471,7.792,0.182,10.876
				v0.076c0.228,1.146,0.623,2.172,1.017,3.167c0.107,0.228,0.137,0.509,0.244,0.729c0.577,1.246,1.276,2.369,2.142,3.35
				c2.612,2.985,6.076,4.048,8.4,4.048l0.182,0.008h0.03h0.031c5.074,0,9.798-5.461,12.471-9.273
				c1.899,4.018,5.955,8.354,13.382,8.354h0.016h0.015c0.016,0,0.016,0,0.016,0c11.635-0.19,21.022-14.742,24.759-21.508
				c0.015-0.031,0.045-0.038,0.061-0.068l2.065-3.402c1.474-2.415,2.537-4.162,3.069-5.483c0.334,0,0.698,0.068,1.108,0.129
				c1.504,0.228,3.509,0.319,4.663-0.41c-0.638,2.051-1.488,5.27-1.184,10.018c0,9.25,4.329,19.366,16.466,19.997
				c0.288,0.015,0.577,0.023,0.851,0.023c5.772,0,11.362-3.296,16.724-9.661c0.622,2.902,1.746,5.332,3.403,7.23
				c2.627,2.985,6.091,4.048,8.415,4.048l0.167,0.008h0.045l0,0h0.015c5.073,0,9.797-5.461,12.47-9.266
				c1.914,4.026,5.954,8.347,13.398,8.347l0,0v-0.008l0.03,0.008h0.015c11.894-0.198,21.463-15.456,25.033-22.002
				C1062.89,97.927,1062.692,94.137,1061.674,92.421z M914.548,94.692c-0.881,5.422-6.638,21.083-11.529,21.098
				c-0.319,0-0.744-0.084-1.231-0.707c-1.503-1.898-2.233-7.397-0.638-13.868c1.777-7.86,6.638-14.491,10.739-14.506
				c1.108,0.038,1.914,0.365,2.445,1.01C915.46,89.049,914.624,94.38,914.548,94.692z M1021.088,94.692
				c-0.896,5.422-6.638,21.067-11.529,21.098c-0.319,0-0.744-0.084-1.23-0.707c-1.504-1.898-2.233-7.397-0.654-13.868
				c1.792-7.846,6.653-14.483,10.754-14.506c1.109,0.038,1.898,0.372,2.445,1.01C1022,89.049,1021.149,94.38,1021.088,94.692z"/>
			<path fill="#FFFFFF" d="M875.055,79.525l-0.561-0.015c-7.671,0-13.701,7.504-17.97,14.605c-1.594-4.344-4.253-8.871-8.415-8.871
				c-0.684,0-1.367,0.137-2.035,0.379c-1.291,0.472-2.916,2.317-7.428,10.368l-0.289,0.509c-0.972,1.898-0.942,4.032,0.091,5.726
				c1.352,2.195,3.752,3.221,5.802,0.752l1.762-3.213c0.562-1.056,1.17-2.18,1.656-3.03c0.531,1.055,1.184,2.832,1.686,5.065
				c0.167,0.645,0.486,2.188,0.805,4.489c-1.291,2.567-2.355,5.028-3.297,7.176l-0.546,1.254
				c-5.483,11.999-16.496,43.412-18.06,61.031c-0.806,7.215,0.289,12.691,3.266,16.26c2.247,2.674,5.438,4.155,9.494,4.421
				c0.258,0.015,0.516,0.03,0.774,0.03c13.626,0,17.787-22.762,18.881-41.885c0.425-9.729,0.82-21.516,0.334-30.448
				c1.489,0.774,3.387,1.375,5.849,1.58c11.802,0.669,22.419-17.582,22.617-29.103C889.501,89.102,885.733,80.124,875.055,79.525z
				 M850.6,153.969c-1.67,20.741-5.696,33.113-10.861,33.113c-0.121-0.007-0.273-0.038-0.501-0.288
				c-0.972-1.116-1.823-4.868-1.261-12.03c1.534-18.638,8.992-39.577,12.926-48.562C851.223,133.842,851.344,143.89,850.6,153.969z
				 M876.893,106.493c-3.235,7.321-8.735,12.022-12.289,10.451c-3.539-1.557-3.782-8.765-0.562-16.101
				c3.251-7.322,8.749-12.022,12.304-10.458C879.885,91.941,880.129,99.149,876.893,106.493z"/>
		</g>
		<path fill="#FFFFFF" d="M505.295,81.734c-1.716-2.286-4.056-3.645-6.987-4.024c-8.947-1.018-15.144,6.645-18.866,13.997
			c1.276-14.233,4.01-33.272,9.615-56.11c0.198-0.797,0.334-1.352,0.411-1.785c0.501-1.807-0.03-4.002-1.443-5.87
			c-1.519-1.983-3.63-3.167-5.681-3.167c-1.275,0-3.645,0.486-5.27,3.721l-0.182,0.661c-4.223,43.663-8.309,68.194-8.339,68.414
			c-0.03,0.129-0.152,0.918-0.304,1.952c-6.561,10.275-12.273,15.554-17.027,15.554c-2.126,0-3.6-0.669-4.496-2.051
			c-2.263-3.471-0.714-10.701,0.212-13.626c0,0,0.137-0.66,0.274-1.656c1.808-9.895-1.322-14.923-4.481-17.43
			c-0.926-0.843-2.065-1.481-3.402-1.921c-0.957-0.373-1.64-0.494-1.64-0.494v0.015c-1.034-0.212-2.157-0.357-3.388-0.402
			c-6.668,0-16.48,6.979-20.308,20.187c-4.466,7.352-11.028,16.822-17.422,16.822c-1.869,0-3.251-0.463-4.178-1.42
			c-2.065-2.111-2.247-6.645-2.126-10.854c0-4.26,0.744-5.795,1.458-7.275c0.562-1.154,1.139-2.347,1.352-4.701
			c0.167-1.511,0.684-6.107-2.673-7.982c-1.367-0.751-2.841-1.139-4.36-1.139c-2.81,0-5.119,1.321-6.243,1.959l-0.137,0.076
			c0.349-0.76,0.744-1.656,0.729-2.438c0.212-1.541-0.684-4.139-2.02-5.78c-1.063-1.313-2.385-2.058-3.722-2.149l-0.471-0.024
			c-4.678,0-6.82,7.177-6.82,13.854c0,1.23,0.046,2.02,0.077,2.574c0.015,0.282,0.03,0.471-0.152,0.767
			c-1.275,2.013-1.959,3.334-2.612,4.609c-0.304,0.601-0.607,1.193-1.002,1.899c-1.23,2.4-0.714,4.807,0.167,6.258
			c1.366,2.217,3.979,2.635,5.331,0.638l2.066-3.402c1.474-2.415,2.537-4.162,3.069-5.483c0.319,0,0.699,0.068,1.108,0.129
			c1.504,0.228,3.494,0.319,4.664-0.41c-0.639,2.051-1.504,5.27-1.17,10.018c0,9.25,4.314,19.366,16.435,19.997
			c0.289,0.015,0.592,0.023,0.866,0.023c5.772,0,11.377-3.296,16.754-9.676c0.608,2.901,1.732,5.339,3.403,7.245
			c2.628,2.985,6.091,4.048,8.415,4.048l0.182,0.008h0.03c5.074,0,9.798-5.484,12.471-9.296c1.898,4.024,5.969,8.377,13.412,8.377
			l0,0c6.456-0.107,12.167-4.656,16.663-9.828c0.213,2.279,0.592,4.428,1.321,6.137c1.625,3.927,3.858,4.747,5.438,4.747
			c1.124,0,2.385-0.516,3.372-1.238c2.431,1.473,6.41,2.635,8.628,2.726l0.273,0.007c6.076,0,18.516-7.07,21.174-24.076
			C509.32,93.522,508.485,86.011,505.295,81.734z M424.987,124.015l-0.015-0.023h0.015V124.015z M436.926,94.692
			c-0.881,5.43-6.638,21.105-11.544,21.105c-0.319,0-0.759-0.083-1.245-0.714c-1.504-1.898-2.233-7.397-0.653-13.868
			c1.793-7.86,6.668-14.506,10.77-14.506l0,0c1.124,0.03,1.913,0.365,2.461,1.01C437.838,89.049,437.003,94.38,436.926,94.692z
			 M485.533,117.795c-3.083,0-4.207-2.43-4.496-3.267c2.278-10.412,8.263-26.581,15.113-26.916l0.258-0.008
			c2.613,0,3.251,3.213,3.327,5.917C499.978,102.582,493.659,117.362,485.533,117.795z"/>
		<path fill="#FFFFFF" d="M819.522,92.345c-1.337-1.769-3.964-1.481-5.103,0.593l-1.914,3.182c-2.902,5.536-7.216,6.699-10.33,6.699
			c-1.275,0-2.612-0.198-3.949-0.577c0.092-0.638,0.153-1.261,0.137-1.838c0.881-10.663-2.202-16.45-4.937-19.419
			c-2.248-2.438-5.104-3.836-7.838-3.836c0,0-14.308-0.995-19.974,23.642c-0.03,0.129-0.046,0.205-0.061,0.334
			c-0.03,0.061-0.061,0.16-0.092,0.22c-4.329,6.722-10.192,13.952-16.45,13.952c-0.228-0.008-0.456-0.024-0.638-0.031
			c-3.63-0.411-6.456-3.44-8.384-8.993c3.25-5.514,5.757-11.339,7.306-15.319c12.744-32.962,16.831-53.665,12.137-61.548
			c-1.276-2.134-3.221-3.425-5.651-3.736c-13.305-1.656-21.752,30.653-24.516,53.513c-0.152-0.015-0.289,0-0.44-0.015
			c-0.228-0.023-0.456-0.038-0.714-0.038c-5.453,0-18.547,6.759-22.648,22.382c-4.268,6.661-10.025,13.602-16.633,13.602
			c-0.258,0-0.516-0.022-0.774-0.037c-1.944-0.153-3.342-0.798-4.284-2.013c-2.855-3.669-1.428-11.833-0.379-17.795
			c0.896-5.165,1.397-8.013,0-9.479c-3.904-4.511-9.889-4.093-11.848,0.615c-0.426,0.889-1.155,2.697-2.081,4.967
			c-1.823,4.489-6.288,15.486-8.749,19.124c-0.015-1.367,0.228-3.532,0.426-5.118c0.531-4.443,1.185-9.965-0.486-14.339
			c-1.792-4.579-4.663-5.271-6.212-5.271c-2.325,0-4.709,1.557-6.016,3.866c-1.884,2.939-3.023,4.777-4.177,6.858
			c-0.046,0.084-0.03,0.16-0.061,0.244c-7.26,12.09-13.534,18.295-18.698,18.334c-2.096-0.016-3.57-0.676-4.451-2.043
			c-2.263-3.471-0.714-10.701,0.213-13.626c0,0,0.137-0.66,0.258-1.656c1.823-9.895-1.307-14.923-4.466-17.43
			c-0.122-0.099-0.304-0.136-0.41-0.228c-0.789-0.638-1.701-1.154-2.719-1.549c-0.107-0.038-0.168-0.114-0.273-0.144
			c-0.972-0.373-1.641-0.494-1.641-0.494v0.015c-0.091-0.015-0.198-0.015-0.273-0.031c-0.653-0.136-1.367-0.182-2.081-0.25
			c-0.349-0.03-0.668-0.106-1.048-0.121c-0.015,0-0.031,0.008-0.045,0.008c-0.015,0-0.03-0.008-0.046-0.008
			c-0.212,0-0.456,0.091-0.684,0.099c-0.653,0.045-1.307,0.105-2.005,0.281c-0.592,0.151-1.2,0.395-1.823,0.631
			c-0.364,0.136-0.698,0.243-1.063,0.41c-0.714,0.327-1.428,0.752-2.156,1.2c-0.258,0.16-0.516,0.311-0.79,0.494
			c-0.76,0.524-1.534,1.124-2.294,1.785c-0.183,0.174-0.379,0.341-0.562,0.523c-0.805,0.737-1.595,1.55-2.354,2.438
			c-0.106,0.129-0.197,0.266-0.304,0.395c-3.584,4.336-6.501,10.268-7.503,17.871c-1.063,8.119,0.152,14.248,3.615,18.197
			c2.628,2.985,6.091,4.048,8.415,4.048l0.183,0.008h0.015c0,0,0,0,0.015,0h0.061h0.016c5.057,0,9.752-5.415,12.44-9.228
			c1.898,4.002,5.954,8.308,13.366,8.308l0,0c0,0,0.03-0.008,0.046-0.008c0.015,0,0.03,0.008,0.045,0.008l0,0v-0.015
			c11.833-0.274,21.357-15.402,24.926-21.949c0.016-0.016,0.016-0.016,0.03-0.03c0.714-1.268,1.321-2.415,1.838-3.402
			c-0.03,0.47-0.075,1.01-0.136,1.625l-0.228,2.651c-0.562,6-1.2,12.789,1.868,16.435c1.185,1.398,2.78,2.18,4.724,2.332
			l0.486,0.015c6.927,0,11.104-9.447,13.747-16.397c0.091,7.079,1.595,17.803,15.403,18.19l0.684,0.015
			c6.577,0,12.106-3.623,16.404-8.051c0.562,1.952,1.413,3.63,2.644,4.998c2.81,3.182,6.698,4.002,9.417,4.131
			c0.258,0.016,0.502,0.023,0.744,0.023c5.104,0,10.33-3.198,15.585-9.517c3.403,5.856,8.218,8.985,14.37,9.312l0.821,0.022
			c6.713,0,12.455-4.306,16.951-9.387c0.684,2.293,1.656,4.526,3.221,6.349c2.188,2.521,4.998,3.904,8.384,4.109
			c0.35,0.023,0.699,0.03,1.049,0.03c7.883,0,14.293-5.369,17.772-14.81c1.58,0.258,3.129,0.395,4.633,0.395
			c10.404,0,17.301-6.531,19.518-13.093C820.813,96.271,820.631,93.803,819.522,92.345z M611.151,94.692
			c-0.896,5.415-6.622,21.022-11.513,21.09c-0.319-0.008-0.714-0.091-1.2-0.699c-1.489-1.898-2.233-7.397-0.638-13.868
			c1.777-7.846,6.622-14.453,10.708-14.498c1.094,0.038,1.884,0.364,2.43,1.002C612.062,89.049,611.212,94.38,611.151,94.692z
			 M717.752,116.17L717.752,116.17c-1.124-0.046-1.595-0.441-1.853-0.729c-0.926-1.033-1.261-3.349-1.003-7.048
			c0.698-8.787,7.807-19.344,11.712-19.344h0.091c0.561,0.075,1.093,0.25,1.533,0.494c-0.121,5.369,0.289,10.617,1.216,15.273
			C723.554,114.658,719.681,116.17,717.752,116.17z M740.87,64.965c4.071-16.899,7.747-23.575,9.721-26.134
			c-0.243,5.659-2.202,18.881-4.42,26.286c-1.003,3.654-4.253,13.466-8.567,23.551C737.832,81.354,738.956,73.084,740.87,64.965z
			 M778.966,117.422h-0.016c-2.066-0.114-4.77-1.23-4.375-9.455c0.122-2.378,1.732-6.805,3.13-9.479
			c2.141,4.064,5.346,7.535,9.296,10.041C785.315,113.108,782.155,117.422,778.966,117.422z M785.057,92.177
			c-0.607-1.701-0.607-3.744,0-4.671c0.197-0.296,0.41-0.418,0.82-0.44l0.076-0.008c0.167,0,0.35,0.022,0.608,0.296
			c0.608,0.601,1.838,2.719,1.96,9.919C786.804,95.709,785.604,93.962,785.057,92.177z"/>
		<g>
			<path fill="#FFFFFF" d="M1050.176,236.524l-1.565,0.972c-2.308,1.42-4.496,2.074-6.85,1.868c-1.96-0.145-3.357-0.797-4.298-2.005
				c-2.856-3.683-1.428-11.863-0.38-17.841c0.911-5.18,1.397-8.035,0-9.508c-3.919-4.519-9.919-4.109-11.894,0.623
				c-0.426,0.888-1.154,2.696-2.081,4.967c-1.823,4.504-6.304,15.493-8.749,19.162c-0.031-1.375,0.227-3.516,0.41-5.096
				c0.531-4.458,1.184-10.01-0.486-14.377c-1.792-4.61-4.679-5.301-6.228-5.301c-2.339,0-4.74,1.557-6.061,3.873
				c-1.883,2.954-3.007,4.792-4.177,6.888c-0.076,0.152-0.107,0.32-0.182,0.471c-7.23,11.985-8.795,18.114-13.93,18.136v-0.015
				c-0.941,0-1.701-0.183-2.399-0.456c-0.197-0.069-0.38-0.183-0.562-0.274c-0.592-0.327-1.139-0.722-1.519-1.314
				c-0.046-0.068-0.076-0.183-0.122-0.258c-2.065-3.547-0.608-10.511,0.304-13.375c0,0,0.121-0.66,0.258-1.655
				c1.823-9.896-1.321-14.924-4.481-17.431c-0.03-0.022-0.075-0.037-0.105-0.068l0,0c-0.988-0.836-2.157-1.482-3.525-1.937
				c-0.668-0.235-1.093-0.341-1.245-0.372c-1.093-0.258-2.279-0.441-3.6-0.478c-7.625,0-19.366,9.098-21.615,26.186
				c-0.228,1.823-0.319,3.524-0.334,5.15c-3.6,3.661-7.336,5.271-11.285,4.853c-4.056-0.456-4.663-6.083-4.663-9.289
				c0.136-2.468,0.227-4.587,0.303-6.394c0.107-2.894,0.198-4.982,0.38-5.977c0.137-0.547,0.334-1.048,0.502-1.511
				c0.471-1.306,1.018-2.787,0.258-4.253c-0.744-1.443-2.4-2.021-3.63-2.346c-0.502-0.129-1.003-0.191-1.489-0.191
				c-1.565,0-4.344,0.677-5.438,5.187c-0.38,1.466-0.699,2.894-1.033,4.322c-0.32,1.39-0.653,2.78-1.018,4.223
				c-1.443,5.627-6.456,14.969-9.312,14.969l0,0c-0.622-0.084-1.078-0.38-1.458-0.965c-2.324-3.584-0.349-14.194,1.534-20.437
				c0.198-0.638,0.41-1.252,0.623-1.83c0.759-2.134,1.489-4.146,0.562-5.909c-0.531-1.01-1.489-1.717-2.794-2.066
				c-3.934-1.223-6.835,0.585-7.398,3.972l-0.304,0.95c-0.85,2.65-2.855,8.878-3.858,15.501c-0.182,1.23-0.212,2.506-0.182,3.774
				c-4.602,6.061-8.733,9.175-12.303,9.175c-1.883,0-3.265-0.471-4.193-1.436c-2.051-2.104-2.233-6.653-2.126-10.868
				c0-4.276,0.744-5.81,1.458-7.299c0.562-1.147,1.154-2.339,1.352-4.709c0.182-1.511,0.699-6.121-2.673-8.005
				c-1.367-0.759-2.856-1.146-4.39-1.146c-2.81,0-5.119,1.321-6.228,1.951l-0.137,0.076c0.35-0.752,0.729-1.64,0.714-2.408
				c0.228-1.549-0.684-4.155-2.02-5.81c-1.063-1.322-2.385-2.073-4.207-2.188c-4.694,0-6.836,7.208-6.836,13.898
				c0,1.246,0.03,2.043,0.076,2.582c0,0.289,0.03,0.471-0.152,0.775c-1.291,2.005-1.975,3.341-2.628,4.625
				c-0.212,0.387-0.44,0.813-0.654,1.23c-4.617,7.731-12.045,19.45-22.724,19.45c-1.944,0-3.706-0.464-5.012-1.094
				c2.84-3.433,7.124-9.038,9.751-15.592l0.562-1.413c2.536-6.228,6.38-15.645-2.081-21.083c-1.61-0.964-3.281-1.458-4.982-1.458
				c-10.04,0-17.103,17.012-17.453,25.905c-0.334,8.711,1.443,15.023,5.469,19.283c3.463,3.691,8.521,5.628,15.038,5.764h0.212
				c13.321,0,22.754-15.181,26.415-22.222l2.065-3.41c1.474-2.407,2.521-4.139,3.053-5.453c0.319,0,0.698,0.069,1.109,0.129
				c1.503,0.228,3.493,0.311,4.678-0.403c-0.653,2.051-1.503,5.278-1.185,10.026c0,9.28,4.329,19.419,16.496,20.058
				c0.289,0.015,0.577,0.022,0.85,0.022c5.271,0,10.572-2.817,15.57-8.202c0.349,0.601,0.653,1.276,1.063,1.801
				c2.021,2.574,4.648,4.093,7.64,4.375c6.79,0.547,11.347-5.332,13.777-9.775c2.142,4.899,6.593,10.147,14.461,10.147h0.274
				c3.706-0.068,7.473-1.617,11.255-4.557c0.623,1.405,1.367,2.681,2.309,3.766c2.643,2.993,6.106,4.064,8.445,4.064l0,0h0.197
				c1.914,0,3.767-0.767,5.499-1.944c2.87-1.914,5.347-4.937,7.033-7.329c1.928,4.025,5.999,8.362,13.443,8.362l0,0
				c11.924-0.198,16.815-15.494,20.399-22.055l0,0c0.699-1.261,1.307-2.408,1.838-3.387c-0.03,0.464-0.075,0.995-0.136,1.595
				l-0.228,2.635c-0.577,6.023-1.216,12.85,1.868,16.504c1.185,1.405,2.779,2.195,5.226,2.354c6.941,0,11.133-9.448,13.777-16.42
				c0.105,7.101,1.625,17.832,15.448,18.227l0.698,0.016c3.813,0,7.595-1.246,11.256-3.691l1.534-1.034L1050.176,236.524z
				 M823.593,219.291l-0.699,1.861c-0.956,2.688-1.823,5.089-4.542,8.62c0-8.985,5.256-19.762,7.367-20.802l-0.016,0.083
				C826.22,210.019,825.977,213.277,823.593,219.291z M968.244,211.302c0.349,0.16,0.638,0.373,0.896,0.654
				c0.137,0.167,0.212,0.379,0.304,0.569c0.44,1.185,0.319,3.334,0.151,4.838l0,0l-0.258,1.572
				c-0.821,5.082-5.909,19.132-10.587,20.954c-0.304,0.107-0.593,0.167-0.897,0.174c-0.319,0-0.744-0.083-1.23-0.714
				c-1.489-1.899-2.233-7.397-0.638-13.861c1.793-7.86,6.638-14.498,10.74-14.514c0.562,0.023,1.033,0.107,1.443,0.274
				C968.198,211.264,968.213,211.294,968.244,211.302z M828.894,247.954L828.894,247.954v0.015V247.954z M934.887,245.053
				L934.887,245.053v0.008V245.053z"/>
		</g>
		<g>
			<path fill="#FFFFFF" d="M570.063,219.39c-0.562-0.926-1.443-1.458-2.415-1.458c-0.638,0-1.838,0.236-2.765,1.853l-1.017,1.77
				c-4.42,7.678-12.623,21.979-24.319,21.979c-1.747,0-3.403-0.281-4.906-0.858c4.647-1.96,8.992-7.093,9.736-14.43
				c0.121-2.469-1.307-6.904-2.826-11.59c-1.124-3.501-2.308-7.109-2.385-8.734c-0.016-0.372-0.016-0.805-0.016-1.283
				c-0.045-3.122-0.106-10.427-7.412-10.633c-5.651,0-6.486,6-6.866,8.826c-0.258,1.511-0.577,2.749-0.881,4.048
				c-1.063,3.152-5.908,16.146-16.192,25.055c-0.365,0.281-0.653,0.539-1.002,0.797c-0.38,0.015-0.744,0.046-1.003,0.046
				c-0.167,0,1.807-4.292,1.443-4.193c1.428-3.304,2.233-6.926,2.233-10.359c0-5.415-1.838-10.056-5.347-13.436
				c-4.01-3.873-9.903-5.841-17.483-5.841c-9.767,0-19.519,4.443-26.08,11.893c-0.016,0.008-0.016,0.023-0.03,0.031l0.015-0.031
				c-1.245,1.413-2.293,2.932-3.22,4.473c-0.274,0.456-0.517,0.919-0.775,1.383c-0.577,1.116-1.063,2.233-1.503,3.379
				c-0.213,0.593-0.471,1.163-0.653,1.762c-0.41,1.428-0.744,2.886-0.926,4.36c-4.116,5.885-9.327,11.422-14.795,11.422
				c-0.243,0-0.47,0-0.653-0.015c-3.6-0.418-6.425-3.433-8.369-8.993c3.266-5.522,5.771-11.331,7.321-15.318
				c12.729-32.962,16.815-53.673,12.121-61.556c-1.276-2.126-3.22-3.425-5.651-3.729c-13.063-1.602-21.736,30.63-24.516,53.498
				c-0.137-0.008-0.274-0.015-0.441-0.008c-4.845-0.516-17.877,5.628-22.708,20.528c-1.2,1.162-2.476,1.899-3.737,2.385
				c-0.137,0.045-0.289,0.114-0.44,0.159c-0.486,0.16-0.942,0.281-1.413,0.364c-0.652,0.107-1.321,0.205-1.929,0.205
				c-1.261,0-2.612-0.197-3.949-0.577c0.075-0.638,0.137-1.261,0.137-1.838c0.88-10.663-2.218-16.451-4.952-19.42
				c-2.248-2.438-5.119-3.836-7.853-3.836c0,0-1.003-0.053-2.552,0.282c-0.212,0.045-0.425,0.121-0.638,0.159
				c-0.212,0.061-0.426,0.137-0.653,0.198c-3.144,0.904-6.957,3.205-10.435,8.59c-0.198,0.303-0.394,0.63-0.592,0.949
				c-0.456,0.798-0.927,1.595-1.383,2.514c-0.562,1.14-1.093,2.415-1.61,3.767c-0.244,0.653-0.486,1.314-0.698,2.013
				c-0.365,1.109-0.714,2.309-1.034,3.57c-0.243,0.835-0.501,1.534-0.698,2.438c-3.828,5.954-8.795,11.674-15.296,11.674
				c-0.288,0-0.592,0-0.911-0.038c-1.154-0.077-2.141-0.615-3.037-1.648c-2.993-3.463-3.919-11.666-3.6-16.116
				c0.258-3.35,2.035-12.243,3.205-18.129c0.593-2.893,1.063-5.271,1.246-6.41l0.653-4.724c0.228-1.618,0.441-3.129,0.638-4.549
				h26.976c3.555,0,7.777-1.268,8.005-4.952c0-1.997-1.367-4.131-5.194-4.131c-0.653,0-1.17,0.069-1.215,0.083l-27.22,0.167
				l0.334-3.342c0.258-2.217-1.048-7.055-3.904-7.989c-4.678-1.444-5.696,2.035-6.486,5.347l-0.152,0.698
				c-0.228,0.988-0.623,2.78-1.063,5.134l-26.855,0.174c-0.137-0.015-0.35-0.037-0.608-0.083c-0.684-0.083-1.58-0.198-2.475-0.198
				c-4.754,0-5.423,3.083-5.499,4.504c0,3.205,3.888,4.473,7.26,4.588h26.598c-2.264,13.358-4.497,27.166-4.663,32.339
				c-0.32,7.655,0.455,18.03,5.984,24.022c2.658,2.871,6.121,4.421,10.298,4.58c0.349,0.015,0.684,0.023,1.033,0.023
				c4.451,0,10.177-1.497,15.873-6.979c0.669,2.407,1.702,4.762,3.327,6.668c2.187,2.514,5.012,3.896,8.369,4.101
				c0.365,0.023,0.73,0.031,1.064,0.031c0.031,0,0.061-0.007,0.091-0.007h0.015c7.899,0,14.324-5.37,17.803-14.78
				c1.534,0.235,3.053,0.372,4.496,0.372c0.076,0,0.137-0.008,0.197-0.008c2.688-0.015,5.119-0.456,7.306-1.207
				c-0.015,4.443,1.048,8.042,3.281,10.564c2.826,3.182,6.714,4.002,9.433,4.131c0.258,0.016,0.502,0.023,0.744,0.023
				c5.088,0,10.344-3.205,15.6-9.524c3.402,5.795,8.308,8.993,14.354,9.319l0.835,0.023c6.593,0,12.273-4.177,16.754-9.152v-0.045
				c3.6,9.266,12.623,14.688,25.291,14.688c7.382,0,18.394-2.393,25.762-8.355c0.075-0.053,0.166-0.091,0.243-0.151
				c2.081-1.602,6.212-4.519,10.542-8.62c3.873,9.098,10.587,13.898,20.415,14.453c0.531,0.038,1.047,0.053,1.549,0.053
				c7.944,0,19.519-3.79,29.604-21.819l0.365-0.645C570.899,225.838,571.43,221.631,570.063,219.39z M364.943,241.757
				c-2.065-0.144-4.738-1.268-4.359-9.471c0.121-2.346,1.701-6.691,3.114-9.379c2.142,4.026,5.301,7.473,9.235,9.949
				C371.262,237.413,368.117,241.688,364.943,241.757z M371.11,216.497c-0.623-1.686-0.623-3.737,0-4.663
				c0.183-0.289,0.41-0.403,0.79-0.433c0.152,0,0.334,0.022,0.592,0.288c0.578,0.585,1.792,2.696,1.944,9.752
				C372.811,219.914,371.626,218.236,371.11,216.497z M407.413,240.496c-1.124-0.045-1.595-0.44-1.853-0.729
				c-0.926-1.026-1.261-3.342-1.018-7.04c0.729-8.78,7.808-19.344,11.727-19.344h0.091c0.577,0.083,1.093,0.258,1.534,0.501
				c-0.121,5.37,0.289,10.618,1.215,15.266C413.216,239.008,409.342,240.496,407.413,240.496z M430.517,189.3
				c4.07-16.906,7.762-23.574,9.736-26.126c-0.243,5.651-2.187,18.881-4.435,26.278c-1.003,3.654-4.238,13.451-8.552,23.567
				C427.494,205.689,428.617,197.418,430.517,189.3z M493.462,234.367c-0.243-0.235-0.379-0.782-0.501-1.45
				c-0.152-1.283-0.046-3.023,0.243-4.405c0.061-0.22,0.092-0.486,0.152-0.676c0.03-0.061,0-0.129,0-0.19
				c0.44-1.891,0.379-4.755-0.441-7.139c-0.167-0.645-0.44-1.321-0.881-1.982c-0.82-1.215-2.445-2.749-5.65-3.182l-0.805-0.045l0,0
				h-0.016l-0.015,0.008c-1.003,0-2.172,0.25-3.433,0.751c-0.289,0.114-0.562,0.281-0.866,0.425
				c-0.957,0.486-1.959,1.109-2.931,1.937c-0.228,0.198-0.426,0.419-0.639,0.646c-0.987,0.941-1.914,2.058-2.734,3.433
				c-0.121,0.204-0.213,0.448-0.334,0.66c-0.744,1.367-1.367,2.909-1.823,4.701c-0.03,0.152-0.121,0.25-0.151,0.41
				c-1.018,4.375-0.623,7.861,1.169,10.352c1.245,1.755,3.205,2.916,5.195,3.122l0.744,0.037l0,0h0.045
				c2.4,0,4.481-1.275,6.152-2.863c0.289,0.494,0.623,0.957,1.018,1.398c1.306,1.465,2.993,2.293,5.468,2.407
				c0.016,0,0.03-0.015,0.03-0.015c0.016,0.015,0.016,0.015,0.016,0.015c1.731,0,3.387-0.394,4.952-1.108
				c-4.998,3.402-11.331,5.004-16.754,5.004c-7.337,0-16.329-3.258-17.529-12.425c-0.76-5.871,1.17-11.788,5.438-16.64
				c4.648-5.301,11.468-8.461,18.228-8.461c5.103,0,8.855,1.125,11.179,3.364c1.853,1.785,2.794,4.269,2.794,7.406
				c0,5.202-2.506,10.108-4.754,12.668v-0.038C495.057,233.608,494.131,234.329,493.462,234.367z M485.761,225.747
				c-0.516,2.279-3.402,8.787-5.483,8.688c-0.137-0.015-0.319-0.061-0.501-0.341c-0.593-0.859-0.76-3.213,0.091-5.932
				c0.987-3.311,3.22-6.008,4.982-5.909c0.471,0.053,0.805,0.213,1.018,0.509C486.308,223.355,485.791,225.61,485.761,225.747z
				 M526.895,235.734c-0.061,0-0.122,0-0.198,0c-1.185-1.967-1.974-3.782-2.537-5.817c-0.03-0.076-0.076-0.19-0.107-0.281
				c2.035-2.909,3.798-6.144,5.104-9.766c0.592-1.444,1.139-2.947,1.565-4.519c1.503,2.423,2.855,5.62,2.855,11.726
				C533.578,232.833,531.603,235.339,526.895,235.734z"/>
		</g>
		<path fill="#FFFFFF" d="M740.445,219.39c-0.547-0.926-1.443-1.458-2.399-1.458c-0.638,0-1.839,0.236-2.78,1.853l-1.017,1.77
			c-4.421,7.678-12.623,21.979-24.319,21.979c-1.747,0-3.403-0.281-4.906-0.858c4.663-1.96,8.992-7.093,9.752-14.43
			c0.106-2.469-1.322-6.904-2.841-11.59c-1.124-3.501-2.293-7.109-2.37-8.734c-0.015-0.372-0.015-0.805-0.03-1.283
			c-0.03-3.122-0.106-10.427-7.412-10.633c-5.635,0-6.471,6-6.866,8.826c-0.243,1.511-0.562,2.749-0.881,4.048
			c-1.063,3.152-5.908,16.146-16.192,25.055c-0.365,0.281-0.653,0.539-0.987,0.797c-0.394,0.015-0.759,0.046-1.017,0.046
			c-0.167,0,1.807-4.292,1.443-4.193c1.428-3.304,2.248-6.926,2.248-10.359c0-5.415-1.853-10.056-5.362-13.436
			c-4.01-3.873-9.889-5.841-17.468-5.841c-9.782,0-19.518,4.443-26.095,11.893l-0.016,0.023v-0.023
			c-0.289,0.334-0.486,0.707-0.759,1.056c-0.821,1.017-1.595,2.073-2.264,3.152c-0.061,0.091-0.136,0.174-0.197,0.265
			c-0.274,0.456-0.517,0.919-0.76,1.383c-0.197,0.365-0.319,0.729-0.486,1.086c-0.274,0.577-0.547,1.155-0.79,1.747
			c-0.061,0.183-0.167,0.357-0.243,0.547c-0.213,0.593-0.472,1.163-0.638,1.762c-0.426,1.428-0.76,2.886-0.942,4.36l0.015,0.136
			c-4.587,6.373-10.784,12.516-18.38,12.516c-5.134,0-8.749-3.136-11.012-6.174c7.079-8.727,20.156-31.807,23.453-54.425
			c2.006-12.713,0.911-22.109-3.159-27.144c-2.066-2.59-4.846-4.003-8.233-4.207l-0.654-0.03c-16.208,0-26.445,37.837-26.612,54.477
			c-0.167,18.107-0.425,45.47,24.091,46.693c0.41,0.023,0.835,0.031,1.276,0.031c8.764,0,15.585-4.542,20.627-9.798l0.016-0.099
			l0.045,0.372v-0.045c3.6,9.266,12.623,14.688,25.306,14.688c7.367,0,18.38-2.393,25.747-8.355
			c0.091-0.053,0.167-0.091,0.243-0.151c2.081-1.602,6.212-4.519,10.556-8.62c3.874,9.098,10.572,13.898,20.4,14.453
			c0.531,0.038,1.048,0.053,1.549,0.053c7.944,0,19.534-3.79,29.62-21.819l0.365-0.645
			C741.281,225.838,741.827,221.631,740.445,219.39z M588.579,203.912c2.43-24.6,12.258-44.574,17.392-44.574l0.153,0.015
			c0.333,0.008,0.728,0.114,1.184,0.729c2.78,3.873,1.291,18.189-0.091,23.233c-6.091,23.407-8.993,31.093-16.845,42.629
			C588.792,219.261,588.139,209.76,588.579,203.912z M663.844,234.367c-0.243-0.235-0.379-0.782-0.486-1.45
			c-0.152-1.283-0.045-3.023,0.243-4.405c0.045-0.22,0.076-0.486,0.152-0.676c0.015-0.061-0.015-0.129,0-0.19
			c0.441-1.891,0.365-4.755-0.44-7.139c-0.183-0.645-0.456-1.321-0.897-1.982c-0.82-1.215-2.445-2.749-5.65-3.182l-0.79-0.045
			h-0.015h-0.015l-0.015,0.008c-0.987,0-2.172,0.25-3.418,0.751c-0.304,0.114-0.577,0.281-0.866,0.425
			c-0.972,0.486-1.974,1.109-2.932,1.937c-0.228,0.198-0.44,0.419-0.654,0.646c-0.987,0.941-1.914,2.058-2.734,3.433
			c-0.107,0.204-0.197,0.448-0.319,0.66c-0.744,1.367-1.367,2.909-1.839,4.701c-0.03,0.152-0.106,0.25-0.151,0.41
			c-1.003,4.375-0.608,7.861,1.169,10.352c1.261,1.755,3.205,2.916,5.195,3.122l0.745,0.037h0.015h0.03
			c2.4,0,4.481-1.275,6.152-2.863c0.29,0.494,0.639,0.957,1.018,1.398c1.321,1.465,2.993,2.293,5.484,2.407l0.03-0.015
			c0,0.015,0,0.015,0,0.015c1.731,0,3.387-0.394,4.952-1.108c-4.982,3.402-11.316,5.004-16.739,5.004
			c-7.352,0-16.344-3.258-17.544-12.425c-0.76-5.871,1.169-11.788,5.438-16.64c4.648-5.301,11.468-8.461,18.243-8.461
			c5.088,0,8.856,1.125,11.165,3.364c1.868,1.785,2.794,4.269,2.794,7.406c0,5.202-2.491,10.108-4.738,12.668v-0.038
			C665.454,233.608,664.512,234.329,663.844,234.367z M656.158,225.747c-0.532,2.279-3.402,8.787-5.483,8.688
			c-0.153-0.015-0.319-0.061-0.516-0.341c-0.592-0.859-0.76-3.213,0.091-5.932c0.987-3.311,3.235-6.008,4.982-5.909
			c0.471,0.053,0.805,0.213,1.003,0.509C656.675,223.355,656.189,225.61,656.158,225.747z M697.291,235.734
			c-0.061,0-0.121,0-0.198,0c-1.184-1.967-1.989-3.782-2.551-5.817c-0.03-0.076-0.076-0.19-0.106-0.281
			c2.036-2.909,3.813-6.144,5.104-9.766c0.593-1.444,1.154-2.947,1.565-4.519c1.503,2.423,2.87,5.62,2.87,11.726
			C703.975,232.833,702,235.339,697.291,235.734z"/>
		<path fill="#FFFFFF" d="M1048.611,238.18l0.015,0.106l0.016-0.045c3.599,9.288,12.638,14.718,25.366,14.718
			c7.397,0,18.425-2.392,25.822-8.369c0.076-0.054,0.167-0.091,0.243-0.152c2.081-1.61,6.228-4.526,10.572-8.65
			c3.888,9.137,10.617,13.944,20.475,14.507c0.517,0.022,1.033,0.045,1.55,0.045c7.96,0,19.579-3.805,29.68-21.88l0.365-0.653
			c2.203-4.269,2.735-8.491,1.367-10.74c-0.562-0.926-1.458-1.466-2.43-1.466c-0.638,0-1.838,0.243-2.78,1.861l-1.018,1.777
			c-4.42,7.701-12.653,22.04-24.394,22.04c-1.732,0-3.387-0.288-4.907-0.865c4.664-1.96,9.023-7.101,9.767-14.461
			c0.121-2.476-1.321-6.926-2.84-11.628c-1.125-3.509-2.309-7.124-2.37-8.757c-0.03-0.372-0.03-0.813-0.046-1.291
			c-0.031-3.129-0.091-10.451-7.428-10.655c-5.65,0-6.485,6.007-6.88,8.848c-0.243,1.519-0.577,2.757-0.881,4.063
			c-1.063,3.152-5.924,16.185-16.238,25.116c-0.365,0.281-0.654,0.54-1.003,0.805c-0.395,0.008-0.744,0.046-1.003,0.046
			c-0.167,0,1.807-4.298,1.443-4.207c1.428-3.312,2.248-6.95,2.248-10.383c0-5.43-1.853-10.093-5.377-13.481
			c-4.01-3.881-9.919-5.847-17.514-5.847c-9.797,0-19.579,4.45-26.172,11.916c0,0.015,0,0.022-0.015,0.038l0.015-0.038
			c-1.261,1.428-2.293,2.939-3.235,4.496c-0.289,0.456-0.516,0.919-0.76,1.39c-0.577,1.109-1.094,2.233-1.519,3.388
			c-0.228,0.585-0.486,1.154-0.653,1.762c-0.425,1.428-0.759,2.886-0.942,4.368l0.031,0.19
			C1047.184,226.089,1046.378,231.405,1048.611,238.18z M1087.254,232.089c-0.228-0.228-0.38-0.79-0.486-1.458
			c-0.167-1.292-0.046-3.031,0.243-4.421c0.061-0.22,0.076-0.486,0.152-0.676c0.015-0.061-0.016-0.129,0-0.183
			c0.44-1.906,0.365-4.777-0.441-7.162c-0.182-0.652-0.456-1.321-0.896-1.982c-0.821-1.223-2.445-2.772-5.666-3.205l-0.79-0.046
			h-0.015h-0.016c-0.015,0-0.015,0.008-0.03,0.008c-0.987,0-2.156,0.251-3.417,0.759c-0.304,0.114-0.578,0.274-0.866,0.425
			c-0.972,0.486-1.975,1.109-2.947,1.936c-0.228,0.213-0.425,0.433-0.653,0.645c-0.972,0.95-1.914,2.074-2.734,3.449
			c-0.121,0.212-0.213,0.448-0.334,0.668c-0.729,1.367-1.367,2.909-1.823,4.709c-0.045,0.152-0.121,0.25-0.166,0.417
			c-1.003,4.382-0.608,7.876,1.184,10.375c1.246,1.762,3.221,2.924,5.21,3.129l0.744,0.037h0.016h0.015
			c2.415,0,4.511-1.276,6.182-2.863c0.29,0.493,0.623,0.956,1.018,1.39c1.322,1.473,3.008,2.309,5.499,2.415l0.03-0.015
			c0,0.015,0,0.015,0,0.015c1.748,0,3.403-0.395,4.968-1.109c-4.998,3.418-11.362,5.021-16.785,5.021
			c-7.382,0-16.389-3.266-17.589-12.464c-0.76-5.886,1.17-11.817,5.453-16.686c4.663-5.316,11.498-8.483,18.288-8.483
			c5.104,0,8.871,1.132,11.195,3.372c1.868,1.793,2.795,4.284,2.795,7.428c0,5.224-2.492,10.139-4.739,12.706v-0.038
			C1088.864,231.329,1087.922,232.043,1087.254,232.089z M1079.537,223.439c-0.516,2.286-3.417,8.817-5.498,8.711
			c-0.137-0.015-0.319-0.061-0.502-0.326c-0.592-0.874-0.759-3.228,0.091-5.962c0.988-3.319,3.236-6.023,4.997-5.917
			c0.456,0.046,0.805,0.205,1.018,0.502C1080.084,221.046,1079.568,223.302,1079.537,223.439z M1120.792,233.456
			c-0.061,0-0.121,0-0.197,0c-1.184-1.974-1.99-3.79-2.552-5.833c-0.031-0.083-0.076-0.19-0.107-0.281
			c2.035-2.924,3.813-6.159,5.119-9.79c0.593-1.451,1.139-2.962,1.565-4.534c1.519,2.43,2.87,5.635,2.87,11.757
			C1127.491,230.547,1125.516,233.061,1120.792,233.456z"/>
		<path fill="#FFFFFF" d="M790.085,203.593l-0.578-0.023c-7.701,0-13.731,7.534-18.03,14.658c-1.595-4.352-4.253-8.893-8.43-8.893
			c-0.684,0-1.367,0.129-2.051,0.372c-1.291,0.478-2.931,2.325-7.443,10.397l-0.289,0.516c-0.972,1.907-0.957,4.049,0.091,5.749
			c1.337,2.195,3.767,3.227,5.818,0.752l1.762-3.235c0.577-1.048,1.185-2.172,1.671-3.038c0.531,1.064,1.185,2.849,1.686,5.088
			c0.166,0.654,0.486,2.196,0.805,4.504c-1.291,2.583-2.37,5.051-3.311,7.208l-0.547,1.238
			c-5.499,12.045-16.557,43.571-18.121,61.244c-0.805,7.245,0.288,12.736,3.281,16.313c2.247,2.681,5.452,4.177,9.524,4.443
			c0.258,0.008,0.531,0.023,0.789,0.023c13.656,0,17.833-22.838,18.926-42.023c0.425-9.759,0.821-21.591,0.334-30.554
			c1.504,0.782,3.418,1.383,5.863,1.587c11.863,0.676,22.511-17.635,22.708-29.186C804.56,213.193,800.778,204.186,790.085,203.593z
			 M765.538,278.28c-1.671,20.802-5.712,33.22-10.891,33.22c-0.121-0.008-0.273-0.038-0.501-0.289
			c-0.988-1.117-1.839-4.883-1.261-12.068c1.519-18.698,9.007-39.721,12.956-48.72C766.176,258.079,766.298,268.164,765.538,278.28z
			 M791.922,230.646c-3.251,7.352-8.765,12.061-12.333,10.488c-3.555-1.564-3.798-8.802-0.562-16.154
			c3.266-7.352,8.779-12.068,12.333-10.488C794.915,216.041,795.158,223.286,791.922,230.646z"/>
	</g>
</g>
</svg>
